<mxfile host="Electron" modified="2023-09-01T04:58:00.992Z" agent="Mozilla/5.0 (Windows NT 10.0; Win64; x64) AppleWebKit/537.36 (KHTML, like Gecko) draw.io/21.6.5 Chrome/114.0.5735.243 Electron/25.3.1 Safari/537.36" etag="5UcVAAlTJkO438LLJNC-" version="21.6.5" type="device">
  <diagram name="Page-1" id="C5f-q9KIwTnNEgcXSA0X">
    <mxGraphModel dx="1420" dy="739" grid="1" gridSize="10" guides="1" tooltips="1" connect="1" arrows="1" fold="1" page="1" pageScale="1" pageWidth="2200" pageHeight="1400" math="0" shadow="0">
      <root>
        <mxCell id="0" />
        <mxCell id="1" parent="0" />
        <mxCell id="hdAm_U4ZvtJkM7ybA8hB-7" style="edgeStyle=orthogonalEdgeStyle;shape=connector;rounded=0;jumpStyle=arc;orthogonalLoop=1;jettySize=auto;html=1;exitX=0;exitY=0.5;exitDx=0;exitDy=0;entryX=0.631;entryY=0.759;entryDx=0;entryDy=0;entryPerimeter=0;labelBackgroundColor=default;strokeColor=default;fontFamily=Helvetica;fontSize=11;fontColor=default;endArrow=none;" parent="1" source="hdAm_U4ZvtJkM7ybA8hB-4" target="hdAm_U4ZvtJkM7ybA8hB-1" edge="1">
          <mxGeometry relative="1" as="geometry">
            <Array as="points">
              <mxPoint x="1190" y="466" />
              <mxPoint x="1190" y="550" />
              <mxPoint x="680" y="550" />
            </Array>
          </mxGeometry>
        </mxCell>
        <mxCell id="pn1axEp1Zz7bbhyXCy7V-46" style="edgeStyle=orthogonalEdgeStyle;shape=connector;rounded=0;jumpStyle=arc;orthogonalLoop=1;jettySize=auto;html=1;exitX=0;exitY=0.5;exitDx=0;exitDy=0;entryX=0.5;entryY=0.69;entryDx=0;entryDy=0;entryPerimeter=0;labelBackgroundColor=default;strokeColor=default;fontFamily=Helvetica;fontSize=11;fontColor=default;endArrow=none;" parent="1" source="pn1axEp1Zz7bbhyXCy7V-39" target="pn1axEp1Zz7bbhyXCy7V-44" edge="1">
          <mxGeometry relative="1" as="geometry" />
        </mxCell>
        <mxCell id="pn1axEp1Zz7bbhyXCy7V-108" style="edgeStyle=orthogonalEdgeStyle;shape=connector;rounded=0;jumpStyle=arc;orthogonalLoop=1;jettySize=auto;html=1;exitX=1;exitY=0.75;exitDx=0;exitDy=0;entryX=1;entryY=0.75;entryDx=0;entryDy=0;labelBackgroundColor=default;strokeColor=default;fontFamily=Helvetica;fontSize=11;fontColor=default;endArrow=none;" parent="1" source="AD1-2I_FPRvKC91VBRbE-305" target="pn1axEp1Zz7bbhyXCy7V-104" edge="1">
          <mxGeometry relative="1" as="geometry">
            <Array as="points">
              <mxPoint x="1330" y="431" />
              <mxPoint x="1330" y="577" />
            </Array>
          </mxGeometry>
        </mxCell>
        <mxCell id="pn1axEp1Zz7bbhyXCy7V-109" style="edgeStyle=orthogonalEdgeStyle;shape=connector;rounded=0;jumpStyle=arc;orthogonalLoop=1;jettySize=auto;html=1;exitX=1;exitY=0.75;exitDx=0;exitDy=0;entryX=1;entryY=0.75;entryDx=0;entryDy=0;labelBackgroundColor=default;strokeColor=default;fontFamily=Helvetica;fontSize=11;fontColor=default;endArrow=none;" parent="1" source="AD1-2I_FPRvKC91VBRbE-306" target="pn1axEp1Zz7bbhyXCy7V-105" edge="1">
          <mxGeometry relative="1" as="geometry">
            <Array as="points">
              <mxPoint x="1320" y="444" />
              <mxPoint x="1320" y="587" />
            </Array>
          </mxGeometry>
        </mxCell>
        <mxCell id="pn1axEp1Zz7bbhyXCy7V-110" style="edgeStyle=orthogonalEdgeStyle;shape=connector;rounded=0;jumpStyle=arc;orthogonalLoop=1;jettySize=auto;html=1;exitX=1;exitY=0.75;exitDx=0;exitDy=0;entryX=1;entryY=0.75;entryDx=0;entryDy=0;labelBackgroundColor=default;strokeColor=default;fontFamily=Helvetica;fontSize=11;fontColor=default;endArrow=none;" parent="1" source="AD1-2I_FPRvKC91VBRbE-307" target="pn1axEp1Zz7bbhyXCy7V-106" edge="1">
          <mxGeometry relative="1" as="geometry">
            <Array as="points">
              <mxPoint x="1310" y="456" />
              <mxPoint x="1310" y="597" />
            </Array>
          </mxGeometry>
        </mxCell>
        <mxCell id="pn1axEp1Zz7bbhyXCy7V-45" style="edgeStyle=orthogonalEdgeStyle;shape=connector;rounded=0;jumpStyle=arc;orthogonalLoop=1;jettySize=auto;html=1;exitX=0;exitY=0.5;exitDx=0;exitDy=0;entryX=0.62;entryY=0.69;entryDx=0;entryDy=0;entryPerimeter=0;labelBackgroundColor=default;strokeColor=default;fontFamily=Helvetica;fontSize=11;fontColor=default;endArrow=none;" parent="1" source="pn1axEp1Zz7bbhyXCy7V-40" target="pn1axEp1Zz7bbhyXCy7V-43" edge="1">
          <mxGeometry relative="1" as="geometry" />
        </mxCell>
        <mxCell id="pn1axEp1Zz7bbhyXCy7V-26" style="edgeStyle=orthogonalEdgeStyle;shape=connector;rounded=0;jumpStyle=arc;orthogonalLoop=1;jettySize=auto;html=1;exitX=0.5;exitY=0;exitDx=0;exitDy=0;entryX=0;entryY=0.75;entryDx=0;entryDy=0;labelBackgroundColor=default;strokeColor=default;fontFamily=Helvetica;fontSize=11;fontColor=default;endArrow=none;" parent="1" source="pn1axEp1Zz7bbhyXCy7V-18" target="AD1-2I_FPRvKC91VBRbE-112" edge="1">
          <mxGeometry relative="1" as="geometry" />
        </mxCell>
        <mxCell id="pn1axEp1Zz7bbhyXCy7V-23" style="edgeStyle=orthogonalEdgeStyle;shape=connector;rounded=0;jumpStyle=arc;orthogonalLoop=1;jettySize=auto;html=1;exitX=0.75;exitY=1;exitDx=0;exitDy=0;labelBackgroundColor=default;strokeColor=default;fontFamily=Helvetica;fontSize=11;fontColor=default;endArrow=none;" parent="1" source="pn1axEp1Zz7bbhyXCy7V-18" target="pn1axEp1Zz7bbhyXCy7V-21" edge="1">
          <mxGeometry relative="1" as="geometry">
            <Array as="points">
              <mxPoint x="590" y="720" />
              <mxPoint x="610" y="720" />
              <mxPoint x="610" y="780" />
              <mxPoint x="160" y="780" />
            </Array>
          </mxGeometry>
        </mxCell>
        <mxCell id="AD1-2I_FPRvKC91VBRbE-1" value="RAM&lt;br&gt;256 bytes" style="rounded=0;whiteSpace=wrap;html=1;" parent="1" vertex="1">
          <mxGeometry x="200" y="360" width="120" height="350" as="geometry" />
        </mxCell>
        <mxCell id="AD1-2I_FPRvKC91VBRbE-19" value="" style="group;align=right;" parent="1" vertex="1" connectable="0">
          <mxGeometry x="220" y="240" width="60" height="80" as="geometry" />
        </mxCell>
        <mxCell id="AD1-2I_FPRvKC91VBRbE-4" value="" style="rounded=0;whiteSpace=wrap;html=1;" parent="AD1-2I_FPRvKC91VBRbE-19" vertex="1">
          <mxGeometry width="60" height="80" as="geometry" />
        </mxCell>
        <mxCell id="AD1-2I_FPRvKC91VBRbE-6" value="&lt;font style=&quot;font-size: 7px;&quot;&gt;reg 000&lt;/font&gt;" style="text;html=1;strokeColor=none;fillColor=none;align=center;verticalAlign=middle;whiteSpace=wrap;rounded=0;" parent="AD1-2I_FPRvKC91VBRbE-19" vertex="1">
          <mxGeometry x="30" y="60" width="30" height="20" as="geometry" />
        </mxCell>
        <mxCell id="AD1-2I_FPRvKC91VBRbE-95" value="&lt;font style=&quot;font-size: 6px;&quot;&gt;write_en&lt;/font&gt;" style="text;html=1;strokeColor=none;fillColor=none;align=left;verticalAlign=middle;whiteSpace=wrap;rounded=0;" parent="AD1-2I_FPRvKC91VBRbE-19" vertex="1">
          <mxGeometry y="30" width="30" height="10" as="geometry" />
        </mxCell>
        <mxCell id="AD1-2I_FPRvKC91VBRbE-96" value="&lt;font style=&quot;font-size: 6px;&quot;&gt;clk&lt;br&gt;&lt;/font&gt;" style="text;html=1;strokeColor=none;fillColor=none;align=left;verticalAlign=middle;whiteSpace=wrap;rounded=0;" parent="AD1-2I_FPRvKC91VBRbE-19" vertex="1">
          <mxGeometry y="50" width="30" height="10" as="geometry" />
        </mxCell>
        <mxCell id="AD1-2I_FPRvKC91VBRbE-97" value="&lt;font style=&quot;font-size: 6px;&quot;&gt;out_en&lt;br&gt;&lt;/font&gt;" style="text;html=1;strokeColor=none;fillColor=none;align=left;verticalAlign=middle;whiteSpace=wrap;rounded=0;" parent="AD1-2I_FPRvKC91VBRbE-19" vertex="1">
          <mxGeometry y="40" width="30" height="10" as="geometry" />
        </mxCell>
        <mxCell id="AD1-2I_FPRvKC91VBRbE-104" value="&lt;span style=&quot;font-size: 6px;&quot;&gt;reg_in&lt;/span&gt;" style="text;html=1;strokeColor=none;fillColor=none;align=left;verticalAlign=middle;whiteSpace=wrap;rounded=0;" parent="AD1-2I_FPRvKC91VBRbE-19" vertex="1">
          <mxGeometry y="10" width="30" height="10" as="geometry" />
        </mxCell>
        <mxCell id="AD1-2I_FPRvKC91VBRbE-105" value="&lt;span style=&quot;font-size: 6px;&quot;&gt;reg_out&lt;/span&gt;" style="text;html=1;strokeColor=none;fillColor=none;align=right;verticalAlign=middle;whiteSpace=wrap;rounded=0;" parent="AD1-2I_FPRvKC91VBRbE-19" vertex="1">
          <mxGeometry x="30" y="10" width="30" height="10" as="geometry" />
        </mxCell>
        <mxCell id="AD1-2I_FPRvKC91VBRbE-50" value="" style="group;align=right;" parent="1" vertex="1" connectable="0">
          <mxGeometry x="1220" y="323.13" width="85" height="170" as="geometry" />
        </mxCell>
        <mxCell id="AD1-2I_FPRvKC91VBRbE-2" value="" style="shape=trapezoid;perimeter=trapezoidPerimeter;whiteSpace=wrap;html=1;fixedSize=1;rotation=90;" parent="AD1-2I_FPRvKC91VBRbE-50" vertex="1">
          <mxGeometry x="-42.5" y="42.5" width="170" height="85" as="geometry" />
        </mxCell>
        <mxCell id="AD1-2I_FPRvKC91VBRbE-3" value="ALU&lt;br&gt;" style="text;html=1;strokeColor=none;fillColor=none;align=center;verticalAlign=middle;whiteSpace=wrap;rounded=0;" parent="AD1-2I_FPRvKC91VBRbE-50" vertex="1">
          <mxGeometry y="63.75" width="85" height="42.5" as="geometry" />
        </mxCell>
        <mxCell id="AD1-2I_FPRvKC91VBRbE-305" value="&lt;span style=&quot;font-size: 7px;&quot;&gt;gt&lt;/span&gt;" style="text;html=1;strokeColor=none;fillColor=none;align=right;verticalAlign=middle;whiteSpace=wrap;rounded=0;fontSize=11;fontFamily=Helvetica;fontColor=default;" parent="AD1-2I_FPRvKC91VBRbE-50" vertex="1">
          <mxGeometry x="60" y="97.5" width="25" height="12.5" as="geometry" />
        </mxCell>
        <mxCell id="AD1-2I_FPRvKC91VBRbE-306" value="&lt;span style=&quot;font-size: 7px;&quot;&gt;lt&lt;/span&gt;" style="text;html=1;strokeColor=none;fillColor=none;align=right;verticalAlign=middle;whiteSpace=wrap;rounded=0;fontSize=11;fontFamily=Helvetica;fontColor=default;" parent="AD1-2I_FPRvKC91VBRbE-50" vertex="1">
          <mxGeometry x="60" y="110" width="25" height="12.5" as="geometry" />
        </mxCell>
        <mxCell id="AD1-2I_FPRvKC91VBRbE-307" value="&lt;span style=&quot;font-size: 7px;&quot;&gt;eq&lt;/span&gt;" style="text;html=1;strokeColor=none;fillColor=none;align=right;verticalAlign=middle;whiteSpace=wrap;rounded=0;fontSize=11;fontFamily=Helvetica;fontColor=default;" parent="AD1-2I_FPRvKC91VBRbE-50" vertex="1">
          <mxGeometry x="60" y="122.5" width="25" height="12.5" as="geometry" />
        </mxCell>
        <mxCell id="hdAm_U4ZvtJkM7ybA8hB-4" value="&amp;lt;instruction&amp;gt;_en" style="text;html=1;strokeColor=none;fillColor=none;align=left;verticalAlign=middle;whiteSpace=wrap;rounded=0;fontSize=7;fontFamily=Helvetica;fontColor=default;" parent="AD1-2I_FPRvKC91VBRbE-50" vertex="1">
          <mxGeometry y="135" width="60" height="13.75" as="geometry" />
        </mxCell>
        <mxCell id="hdAm_U4ZvtJkM7ybA8hB-8" value="a" style="text;html=1;strokeColor=none;fillColor=none;align=left;verticalAlign=middle;whiteSpace=wrap;rounded=0;fontSize=7;fontFamily=Helvetica;fontColor=default;" parent="AD1-2I_FPRvKC91VBRbE-50" vertex="1">
          <mxGeometry y="121.25" width="10" height="13.75" as="geometry" />
        </mxCell>
        <mxCell id="hdAm_U4ZvtJkM7ybA8hB-17" value="b" style="text;html=1;strokeColor=none;fillColor=none;align=left;verticalAlign=middle;whiteSpace=wrap;rounded=0;fontSize=7;fontFamily=Helvetica;fontColor=default;" parent="AD1-2I_FPRvKC91VBRbE-50" vertex="1">
          <mxGeometry y="42.5" width="10" height="13.75" as="geometry" />
        </mxCell>
        <mxCell id="AD1-2I_FPRvKC91VBRbE-106" value="" style="group;align=right;" parent="1" vertex="1" connectable="0">
          <mxGeometry x="370" y="630" width="60" height="80" as="geometry" />
        </mxCell>
        <mxCell id="AD1-2I_FPRvKC91VBRbE-107" value="" style="rounded=0;whiteSpace=wrap;html=1;" parent="AD1-2I_FPRvKC91VBRbE-106" vertex="1">
          <mxGeometry width="60" height="80" as="geometry" />
        </mxCell>
        <mxCell id="AD1-2I_FPRvKC91VBRbE-108" value="&lt;font style=&quot;font-size: 7px;&quot;&gt;PC&lt;/font&gt;" style="text;html=1;strokeColor=none;fillColor=none;align=center;verticalAlign=middle;whiteSpace=wrap;rounded=0;" parent="AD1-2I_FPRvKC91VBRbE-106" vertex="1">
          <mxGeometry x="30" y="60" width="30" height="20" as="geometry" />
        </mxCell>
        <mxCell id="AD1-2I_FPRvKC91VBRbE-109" value="&lt;font style=&quot;font-size: 6px;&quot;&gt;write_en&lt;/font&gt;" style="text;html=1;strokeColor=none;fillColor=none;align=left;verticalAlign=middle;whiteSpace=wrap;rounded=0;" parent="AD1-2I_FPRvKC91VBRbE-106" vertex="1">
          <mxGeometry y="30" width="30" height="10" as="geometry" />
        </mxCell>
        <mxCell id="AD1-2I_FPRvKC91VBRbE-110" value="&lt;font style=&quot;font-size: 6px;&quot;&gt;clk&lt;br&gt;&lt;/font&gt;" style="text;html=1;strokeColor=none;fillColor=none;align=left;verticalAlign=middle;whiteSpace=wrap;rounded=0;" parent="AD1-2I_FPRvKC91VBRbE-106" vertex="1">
          <mxGeometry y="50" width="30" height="10" as="geometry" />
        </mxCell>
        <mxCell id="AD1-2I_FPRvKC91VBRbE-111" value="&lt;font style=&quot;font-size: 6px;&quot;&gt;out_en&lt;br&gt;&lt;/font&gt;" style="text;html=1;strokeColor=none;fillColor=none;align=left;verticalAlign=middle;whiteSpace=wrap;rounded=0;" parent="AD1-2I_FPRvKC91VBRbE-106" vertex="1">
          <mxGeometry y="40" width="30" height="10" as="geometry" />
        </mxCell>
        <mxCell id="AD1-2I_FPRvKC91VBRbE-112" value="&lt;span style=&quot;font-size: 6px;&quot;&gt;reg_in&lt;/span&gt;" style="text;html=1;strokeColor=none;fillColor=none;align=left;verticalAlign=middle;whiteSpace=wrap;rounded=0;" parent="AD1-2I_FPRvKC91VBRbE-106" vertex="1">
          <mxGeometry y="10" width="30" height="10" as="geometry" />
        </mxCell>
        <mxCell id="AD1-2I_FPRvKC91VBRbE-113" value="&lt;span style=&quot;font-size: 6px;&quot;&gt;reg_out&lt;/span&gt;" style="text;html=1;strokeColor=none;fillColor=none;align=right;verticalAlign=middle;whiteSpace=wrap;rounded=0;" parent="AD1-2I_FPRvKC91VBRbE-106" vertex="1">
          <mxGeometry x="30" y="10" width="30" height="10" as="geometry" />
        </mxCell>
        <mxCell id="AD1-2I_FPRvKC91VBRbE-114" value="" style="group;align=right;" parent="1" vertex="1" connectable="0">
          <mxGeometry x="370" y="530" width="60" height="80" as="geometry" />
        </mxCell>
        <mxCell id="AD1-2I_FPRvKC91VBRbE-115" value="" style="rounded=0;whiteSpace=wrap;html=1;" parent="AD1-2I_FPRvKC91VBRbE-114" vertex="1">
          <mxGeometry width="60" height="80" as="geometry" />
        </mxCell>
        <mxCell id="AD1-2I_FPRvKC91VBRbE-116" value="&lt;font style=&quot;font-size: 7px;&quot;&gt;IR&lt;/font&gt;" style="text;html=1;strokeColor=none;fillColor=none;align=center;verticalAlign=middle;whiteSpace=wrap;rounded=0;" parent="AD1-2I_FPRvKC91VBRbE-114" vertex="1">
          <mxGeometry x="30" y="60" width="30" height="20" as="geometry" />
        </mxCell>
        <mxCell id="AD1-2I_FPRvKC91VBRbE-117" value="&lt;font style=&quot;font-size: 6px;&quot;&gt;write_en&lt;/font&gt;" style="text;html=1;strokeColor=none;fillColor=none;align=left;verticalAlign=middle;whiteSpace=wrap;rounded=0;" parent="AD1-2I_FPRvKC91VBRbE-114" vertex="1">
          <mxGeometry y="30" width="30" height="10" as="geometry" />
        </mxCell>
        <mxCell id="AD1-2I_FPRvKC91VBRbE-118" value="&lt;font style=&quot;font-size: 6px;&quot;&gt;clk&lt;br&gt;&lt;/font&gt;" style="text;html=1;strokeColor=none;fillColor=none;align=left;verticalAlign=middle;whiteSpace=wrap;rounded=0;" parent="AD1-2I_FPRvKC91VBRbE-114" vertex="1">
          <mxGeometry y="50" width="30" height="10" as="geometry" />
        </mxCell>
        <mxCell id="AD1-2I_FPRvKC91VBRbE-119" value="&lt;font style=&quot;font-size: 6px;&quot;&gt;out_en&lt;br&gt;&lt;/font&gt;" style="text;html=1;strokeColor=none;fillColor=none;align=left;verticalAlign=middle;whiteSpace=wrap;rounded=0;" parent="AD1-2I_FPRvKC91VBRbE-114" vertex="1">
          <mxGeometry y="40" width="30" height="10" as="geometry" />
        </mxCell>
        <mxCell id="AD1-2I_FPRvKC91VBRbE-120" value="&lt;span style=&quot;font-size: 6px;&quot;&gt;reg_in&lt;/span&gt;" style="text;html=1;strokeColor=none;fillColor=none;align=left;verticalAlign=middle;whiteSpace=wrap;rounded=0;" parent="AD1-2I_FPRvKC91VBRbE-114" vertex="1">
          <mxGeometry y="10" width="30" height="10" as="geometry" />
        </mxCell>
        <mxCell id="AD1-2I_FPRvKC91VBRbE-121" value="&lt;span style=&quot;font-size: 6px;&quot;&gt;reg_out&lt;/span&gt;" style="text;html=1;strokeColor=none;fillColor=none;align=right;verticalAlign=middle;whiteSpace=wrap;rounded=0;" parent="AD1-2I_FPRvKC91VBRbE-114" vertex="1">
          <mxGeometry x="30" y="10" width="30" height="10" as="geometry" />
        </mxCell>
        <mxCell id="AD1-2I_FPRvKC91VBRbE-122" value="" style="group;align=right;" parent="1" vertex="1" connectable="0">
          <mxGeometry x="340" y="240" width="60" height="80" as="geometry" />
        </mxCell>
        <mxCell id="AD1-2I_FPRvKC91VBRbE-123" value="" style="rounded=0;whiteSpace=wrap;html=1;" parent="AD1-2I_FPRvKC91VBRbE-122" vertex="1">
          <mxGeometry width="60" height="80" as="geometry" />
        </mxCell>
        <mxCell id="AD1-2I_FPRvKC91VBRbE-124" value="&lt;font style=&quot;font-size: 7px;&quot;&gt;reg 001&lt;/font&gt;" style="text;html=1;strokeColor=none;fillColor=none;align=center;verticalAlign=middle;whiteSpace=wrap;rounded=0;" parent="AD1-2I_FPRvKC91VBRbE-122" vertex="1">
          <mxGeometry x="30" y="60" width="30" height="20" as="geometry" />
        </mxCell>
        <mxCell id="AD1-2I_FPRvKC91VBRbE-125" value="&lt;font style=&quot;font-size: 6px;&quot;&gt;write_en&lt;/font&gt;" style="text;html=1;strokeColor=none;fillColor=none;align=left;verticalAlign=middle;whiteSpace=wrap;rounded=0;" parent="AD1-2I_FPRvKC91VBRbE-122" vertex="1">
          <mxGeometry y="30" width="30" height="10" as="geometry" />
        </mxCell>
        <mxCell id="AD1-2I_FPRvKC91VBRbE-126" value="&lt;font style=&quot;font-size: 6px;&quot;&gt;clk&lt;br&gt;&lt;/font&gt;" style="text;html=1;strokeColor=none;fillColor=none;align=left;verticalAlign=middle;whiteSpace=wrap;rounded=0;" parent="AD1-2I_FPRvKC91VBRbE-122" vertex="1">
          <mxGeometry y="50" width="30" height="10" as="geometry" />
        </mxCell>
        <mxCell id="AD1-2I_FPRvKC91VBRbE-127" value="&lt;font style=&quot;font-size: 6px;&quot;&gt;out_en&lt;br&gt;&lt;/font&gt;" style="text;html=1;strokeColor=none;fillColor=none;align=left;verticalAlign=middle;whiteSpace=wrap;rounded=0;" parent="AD1-2I_FPRvKC91VBRbE-122" vertex="1">
          <mxGeometry y="40" width="30" height="10" as="geometry" />
        </mxCell>
        <mxCell id="AD1-2I_FPRvKC91VBRbE-129" value="&lt;span style=&quot;font-size: 6px;&quot;&gt;reg_out&lt;/span&gt;" style="text;html=1;strokeColor=none;fillColor=none;align=right;verticalAlign=middle;whiteSpace=wrap;rounded=0;" parent="AD1-2I_FPRvKC91VBRbE-122" vertex="1">
          <mxGeometry x="30" y="10" width="30" height="10" as="geometry" />
        </mxCell>
        <mxCell id="AD1-2I_FPRvKC91VBRbE-128" value="&lt;span style=&quot;font-size: 6px;&quot;&gt;reg_in&lt;/span&gt;" style="text;html=1;strokeColor=none;fillColor=none;align=left;verticalAlign=middle;whiteSpace=wrap;rounded=0;" parent="AD1-2I_FPRvKC91VBRbE-122" vertex="1">
          <mxGeometry y="10" width="30" height="10" as="geometry" />
        </mxCell>
        <mxCell id="AD1-2I_FPRvKC91VBRbE-130" value="" style="group;align=right;" parent="1" vertex="1" connectable="0">
          <mxGeometry x="460" y="240" width="60" height="80" as="geometry" />
        </mxCell>
        <mxCell id="AD1-2I_FPRvKC91VBRbE-131" value="" style="rounded=0;whiteSpace=wrap;html=1;" parent="AD1-2I_FPRvKC91VBRbE-130" vertex="1">
          <mxGeometry width="60" height="80" as="geometry" />
        </mxCell>
        <mxCell id="AD1-2I_FPRvKC91VBRbE-132" value="&lt;font style=&quot;font-size: 7px;&quot;&gt;reg 010&lt;/font&gt;" style="text;html=1;strokeColor=none;fillColor=none;align=center;verticalAlign=middle;whiteSpace=wrap;rounded=0;" parent="AD1-2I_FPRvKC91VBRbE-130" vertex="1">
          <mxGeometry x="30" y="60" width="30" height="20" as="geometry" />
        </mxCell>
        <mxCell id="AD1-2I_FPRvKC91VBRbE-133" value="&lt;font style=&quot;font-size: 6px;&quot;&gt;write_en&lt;/font&gt;" style="text;html=1;strokeColor=none;fillColor=none;align=left;verticalAlign=middle;whiteSpace=wrap;rounded=0;" parent="AD1-2I_FPRvKC91VBRbE-130" vertex="1">
          <mxGeometry y="30" width="30" height="10" as="geometry" />
        </mxCell>
        <mxCell id="AD1-2I_FPRvKC91VBRbE-134" value="&lt;font style=&quot;font-size: 6px;&quot;&gt;clk&lt;br&gt;&lt;/font&gt;" style="text;html=1;strokeColor=none;fillColor=none;align=left;verticalAlign=middle;whiteSpace=wrap;rounded=0;" parent="AD1-2I_FPRvKC91VBRbE-130" vertex="1">
          <mxGeometry y="50" width="30" height="10" as="geometry" />
        </mxCell>
        <mxCell id="AD1-2I_FPRvKC91VBRbE-135" value="&lt;font style=&quot;font-size: 6px;&quot;&gt;out_en&lt;br&gt;&lt;/font&gt;" style="text;html=1;strokeColor=none;fillColor=none;align=left;verticalAlign=middle;whiteSpace=wrap;rounded=0;" parent="AD1-2I_FPRvKC91VBRbE-130" vertex="1">
          <mxGeometry y="40" width="30" height="10" as="geometry" />
        </mxCell>
        <mxCell id="AD1-2I_FPRvKC91VBRbE-136" value="&lt;span style=&quot;font-size: 6px;&quot;&gt;reg_in&lt;/span&gt;" style="text;html=1;strokeColor=none;fillColor=none;align=left;verticalAlign=middle;whiteSpace=wrap;rounded=0;" parent="AD1-2I_FPRvKC91VBRbE-130" vertex="1">
          <mxGeometry y="10" width="30" height="10" as="geometry" />
        </mxCell>
        <mxCell id="AD1-2I_FPRvKC91VBRbE-137" value="&lt;span style=&quot;font-size: 6px;&quot;&gt;reg_out&lt;/span&gt;" style="text;html=1;strokeColor=none;fillColor=none;align=right;verticalAlign=middle;whiteSpace=wrap;rounded=0;" parent="AD1-2I_FPRvKC91VBRbE-130" vertex="1">
          <mxGeometry x="30" y="10" width="30" height="10" as="geometry" />
        </mxCell>
        <mxCell id="AD1-2I_FPRvKC91VBRbE-146" value="" style="group;align=right;" parent="1" vertex="1" connectable="0">
          <mxGeometry x="700" y="240" width="60" height="80" as="geometry" />
        </mxCell>
        <mxCell id="AD1-2I_FPRvKC91VBRbE-147" value="" style="rounded=0;whiteSpace=wrap;html=1;" parent="AD1-2I_FPRvKC91VBRbE-146" vertex="1">
          <mxGeometry width="60" height="80" as="geometry" />
        </mxCell>
        <mxCell id="AD1-2I_FPRvKC91VBRbE-148" value="&lt;font style=&quot;font-size: 7px;&quot;&gt;reg 100&lt;/font&gt;" style="text;html=1;strokeColor=none;fillColor=none;align=center;verticalAlign=middle;whiteSpace=wrap;rounded=0;" parent="AD1-2I_FPRvKC91VBRbE-146" vertex="1">
          <mxGeometry x="30" y="60" width="30" height="20" as="geometry" />
        </mxCell>
        <mxCell id="AD1-2I_FPRvKC91VBRbE-149" value="&lt;font style=&quot;font-size: 6px;&quot;&gt;write_en&lt;/font&gt;" style="text;html=1;strokeColor=none;fillColor=none;align=left;verticalAlign=middle;whiteSpace=wrap;rounded=0;" parent="AD1-2I_FPRvKC91VBRbE-146" vertex="1">
          <mxGeometry y="30" width="30" height="10" as="geometry" />
        </mxCell>
        <mxCell id="AD1-2I_FPRvKC91VBRbE-150" value="&lt;font style=&quot;font-size: 6px;&quot;&gt;clk&lt;br&gt;&lt;/font&gt;" style="text;html=1;strokeColor=none;fillColor=none;align=left;verticalAlign=middle;whiteSpace=wrap;rounded=0;" parent="AD1-2I_FPRvKC91VBRbE-146" vertex="1">
          <mxGeometry y="50" width="30" height="10" as="geometry" />
        </mxCell>
        <mxCell id="AD1-2I_FPRvKC91VBRbE-151" value="&lt;font style=&quot;font-size: 6px;&quot;&gt;out_en&lt;br&gt;&lt;/font&gt;" style="text;html=1;strokeColor=none;fillColor=none;align=left;verticalAlign=middle;whiteSpace=wrap;rounded=0;" parent="AD1-2I_FPRvKC91VBRbE-146" vertex="1">
          <mxGeometry y="40" width="30" height="10" as="geometry" />
        </mxCell>
        <mxCell id="AD1-2I_FPRvKC91VBRbE-152" value="&lt;span style=&quot;font-size: 6px;&quot;&gt;reg_in&lt;/span&gt;" style="text;html=1;strokeColor=none;fillColor=none;align=left;verticalAlign=middle;whiteSpace=wrap;rounded=0;" parent="AD1-2I_FPRvKC91VBRbE-146" vertex="1">
          <mxGeometry y="10" width="30" height="10" as="geometry" />
        </mxCell>
        <mxCell id="AD1-2I_FPRvKC91VBRbE-153" value="&lt;span style=&quot;font-size: 6px;&quot;&gt;reg_out&lt;/span&gt;" style="text;html=1;strokeColor=none;fillColor=none;align=right;verticalAlign=middle;whiteSpace=wrap;rounded=0;" parent="AD1-2I_FPRvKC91VBRbE-146" vertex="1">
          <mxGeometry x="30" y="10" width="30" height="10" as="geometry" />
        </mxCell>
        <mxCell id="AD1-2I_FPRvKC91VBRbE-138" value="" style="group;align=right;" parent="1" vertex="1" connectable="0">
          <mxGeometry x="580" y="240" width="60" height="80" as="geometry" />
        </mxCell>
        <mxCell id="AD1-2I_FPRvKC91VBRbE-139" value="" style="rounded=0;whiteSpace=wrap;html=1;" parent="AD1-2I_FPRvKC91VBRbE-138" vertex="1">
          <mxGeometry width="60" height="80" as="geometry" />
        </mxCell>
        <mxCell id="AD1-2I_FPRvKC91VBRbE-140" value="&lt;font style=&quot;font-size: 7px;&quot;&gt;reg 011&lt;/font&gt;" style="text;html=1;strokeColor=none;fillColor=none;align=center;verticalAlign=middle;whiteSpace=wrap;rounded=0;" parent="AD1-2I_FPRvKC91VBRbE-138" vertex="1">
          <mxGeometry x="30" y="60" width="30" height="20" as="geometry" />
        </mxCell>
        <mxCell id="AD1-2I_FPRvKC91VBRbE-141" value="&lt;font style=&quot;font-size: 6px;&quot;&gt;write_en&lt;/font&gt;" style="text;html=1;strokeColor=none;fillColor=none;align=left;verticalAlign=middle;whiteSpace=wrap;rounded=0;" parent="AD1-2I_FPRvKC91VBRbE-138" vertex="1">
          <mxGeometry y="30" width="30" height="10" as="geometry" />
        </mxCell>
        <mxCell id="AD1-2I_FPRvKC91VBRbE-142" value="&lt;font style=&quot;font-size: 6px;&quot;&gt;clk&lt;br&gt;&lt;/font&gt;" style="text;html=1;strokeColor=none;fillColor=none;align=left;verticalAlign=middle;whiteSpace=wrap;rounded=0;" parent="AD1-2I_FPRvKC91VBRbE-138" vertex="1">
          <mxGeometry y="50" width="30" height="10" as="geometry" />
        </mxCell>
        <mxCell id="AD1-2I_FPRvKC91VBRbE-143" value="&lt;font style=&quot;font-size: 6px;&quot;&gt;out_en&lt;br&gt;&lt;/font&gt;" style="text;html=1;strokeColor=none;fillColor=none;align=left;verticalAlign=middle;whiteSpace=wrap;rounded=0;" parent="AD1-2I_FPRvKC91VBRbE-138" vertex="1">
          <mxGeometry y="40" width="30" height="10" as="geometry" />
        </mxCell>
        <mxCell id="AD1-2I_FPRvKC91VBRbE-144" value="&lt;span style=&quot;font-size: 6px;&quot;&gt;reg_in&lt;/span&gt;" style="text;html=1;strokeColor=none;fillColor=none;align=left;verticalAlign=middle;whiteSpace=wrap;rounded=0;" parent="AD1-2I_FPRvKC91VBRbE-138" vertex="1">
          <mxGeometry y="10" width="30" height="10" as="geometry" />
        </mxCell>
        <mxCell id="AD1-2I_FPRvKC91VBRbE-145" value="&lt;span style=&quot;font-size: 6px;&quot;&gt;reg_out&lt;/span&gt;" style="text;html=1;strokeColor=none;fillColor=none;align=right;verticalAlign=middle;whiteSpace=wrap;rounded=0;" parent="AD1-2I_FPRvKC91VBRbE-138" vertex="1">
          <mxGeometry x="30" y="10" width="30" height="10" as="geometry" />
        </mxCell>
        <mxCell id="AD1-2I_FPRvKC91VBRbE-155" value="" style="group;align=right;" parent="1" vertex="1" connectable="0">
          <mxGeometry x="820" y="240" width="60" height="80" as="geometry" />
        </mxCell>
        <mxCell id="AD1-2I_FPRvKC91VBRbE-156" value="" style="rounded=0;whiteSpace=wrap;html=1;" parent="AD1-2I_FPRvKC91VBRbE-155" vertex="1">
          <mxGeometry width="60" height="80" as="geometry" />
        </mxCell>
        <mxCell id="AD1-2I_FPRvKC91VBRbE-157" value="&lt;font style=&quot;font-size: 7px;&quot;&gt;reg 101&lt;/font&gt;" style="text;html=1;strokeColor=none;fillColor=none;align=center;verticalAlign=middle;whiteSpace=wrap;rounded=0;" parent="AD1-2I_FPRvKC91VBRbE-155" vertex="1">
          <mxGeometry x="30" y="60" width="30" height="20" as="geometry" />
        </mxCell>
        <mxCell id="AD1-2I_FPRvKC91VBRbE-158" value="&lt;font style=&quot;font-size: 6px;&quot;&gt;write_en&lt;/font&gt;" style="text;html=1;strokeColor=none;fillColor=none;align=left;verticalAlign=middle;whiteSpace=wrap;rounded=0;" parent="AD1-2I_FPRvKC91VBRbE-155" vertex="1">
          <mxGeometry y="30" width="30" height="10" as="geometry" />
        </mxCell>
        <mxCell id="AD1-2I_FPRvKC91VBRbE-159" value="&lt;font style=&quot;font-size: 6px;&quot;&gt;clk&lt;br&gt;&lt;/font&gt;" style="text;html=1;strokeColor=none;fillColor=none;align=left;verticalAlign=middle;whiteSpace=wrap;rounded=0;" parent="AD1-2I_FPRvKC91VBRbE-155" vertex="1">
          <mxGeometry y="50" width="30" height="10" as="geometry" />
        </mxCell>
        <mxCell id="AD1-2I_FPRvKC91VBRbE-160" value="&lt;font style=&quot;font-size: 6px;&quot;&gt;out_en&lt;br&gt;&lt;/font&gt;" style="text;html=1;strokeColor=none;fillColor=none;align=left;verticalAlign=middle;whiteSpace=wrap;rounded=0;" parent="AD1-2I_FPRvKC91VBRbE-155" vertex="1">
          <mxGeometry y="40" width="30" height="10" as="geometry" />
        </mxCell>
        <mxCell id="AD1-2I_FPRvKC91VBRbE-161" value="&lt;span style=&quot;font-size: 6px;&quot;&gt;reg_in&lt;/span&gt;" style="text;html=1;strokeColor=none;fillColor=none;align=left;verticalAlign=middle;whiteSpace=wrap;rounded=0;" parent="AD1-2I_FPRvKC91VBRbE-155" vertex="1">
          <mxGeometry y="10" width="30" height="10" as="geometry" />
        </mxCell>
        <mxCell id="AD1-2I_FPRvKC91VBRbE-162" value="&lt;span style=&quot;font-size: 6px;&quot;&gt;reg_out&lt;/span&gt;" style="text;html=1;strokeColor=none;fillColor=none;align=right;verticalAlign=middle;whiteSpace=wrap;rounded=0;" parent="AD1-2I_FPRvKC91VBRbE-155" vertex="1">
          <mxGeometry x="30" y="10" width="30" height="10" as="geometry" />
        </mxCell>
        <mxCell id="AD1-2I_FPRvKC91VBRbE-163" value="" style="group;align=right;" parent="1" vertex="1" connectable="0">
          <mxGeometry x="940" y="240" width="60" height="80" as="geometry" />
        </mxCell>
        <mxCell id="AD1-2I_FPRvKC91VBRbE-164" value="" style="rounded=0;whiteSpace=wrap;html=1;" parent="AD1-2I_FPRvKC91VBRbE-163" vertex="1">
          <mxGeometry width="60" height="80" as="geometry" />
        </mxCell>
        <mxCell id="AD1-2I_FPRvKC91VBRbE-165" value="&lt;font style=&quot;font-size: 7px;&quot;&gt;reg 110&lt;br&gt;&lt;/font&gt;" style="text;html=1;strokeColor=none;fillColor=none;align=center;verticalAlign=middle;whiteSpace=wrap;rounded=0;" parent="AD1-2I_FPRvKC91VBRbE-163" vertex="1">
          <mxGeometry x="30" y="60" width="30" height="20" as="geometry" />
        </mxCell>
        <mxCell id="AD1-2I_FPRvKC91VBRbE-166" value="&lt;font style=&quot;font-size: 6px;&quot;&gt;write_en&lt;/font&gt;" style="text;html=1;strokeColor=none;fillColor=none;align=left;verticalAlign=middle;whiteSpace=wrap;rounded=0;" parent="AD1-2I_FPRvKC91VBRbE-163" vertex="1">
          <mxGeometry y="30" width="30" height="10" as="geometry" />
        </mxCell>
        <mxCell id="AD1-2I_FPRvKC91VBRbE-167" value="&lt;font style=&quot;font-size: 6px;&quot;&gt;clk&lt;br&gt;&lt;/font&gt;" style="text;html=1;strokeColor=none;fillColor=none;align=left;verticalAlign=middle;whiteSpace=wrap;rounded=0;" parent="AD1-2I_FPRvKC91VBRbE-163" vertex="1">
          <mxGeometry y="50" width="30" height="10" as="geometry" />
        </mxCell>
        <mxCell id="AD1-2I_FPRvKC91VBRbE-168" value="&lt;font style=&quot;font-size: 6px;&quot;&gt;out_en&lt;br&gt;&lt;/font&gt;" style="text;html=1;strokeColor=none;fillColor=none;align=left;verticalAlign=middle;whiteSpace=wrap;rounded=0;" parent="AD1-2I_FPRvKC91VBRbE-163" vertex="1">
          <mxGeometry y="40" width="30" height="10" as="geometry" />
        </mxCell>
        <mxCell id="AD1-2I_FPRvKC91VBRbE-169" value="&lt;span style=&quot;font-size: 6px;&quot;&gt;reg_in&lt;/span&gt;" style="text;html=1;strokeColor=none;fillColor=none;align=left;verticalAlign=middle;whiteSpace=wrap;rounded=0;" parent="AD1-2I_FPRvKC91VBRbE-163" vertex="1">
          <mxGeometry y="10" width="30" height="10" as="geometry" />
        </mxCell>
        <mxCell id="AD1-2I_FPRvKC91VBRbE-170" value="&lt;span style=&quot;font-size: 6px;&quot;&gt;reg_out&lt;/span&gt;" style="text;html=1;strokeColor=none;fillColor=none;align=right;verticalAlign=middle;whiteSpace=wrap;rounded=0;" parent="AD1-2I_FPRvKC91VBRbE-163" vertex="1">
          <mxGeometry x="30" y="10" width="30" height="10" as="geometry" />
        </mxCell>
        <mxCell id="AD1-2I_FPRvKC91VBRbE-171" value="" style="group;align=right;" parent="1" vertex="1" connectable="0">
          <mxGeometry x="1060" y="240" width="60" height="80" as="geometry" />
        </mxCell>
        <mxCell id="AD1-2I_FPRvKC91VBRbE-172" value="" style="rounded=0;whiteSpace=wrap;html=1;" parent="AD1-2I_FPRvKC91VBRbE-171" vertex="1">
          <mxGeometry width="60" height="80" as="geometry" />
        </mxCell>
        <mxCell id="AD1-2I_FPRvKC91VBRbE-173" value="&lt;font style=&quot;font-size: 7px;&quot;&gt;reg 111&lt;br&gt;&lt;/font&gt;" style="text;html=1;strokeColor=none;fillColor=none;align=center;verticalAlign=middle;whiteSpace=wrap;rounded=0;" parent="AD1-2I_FPRvKC91VBRbE-171" vertex="1">
          <mxGeometry x="30" y="60" width="30" height="20" as="geometry" />
        </mxCell>
        <mxCell id="AD1-2I_FPRvKC91VBRbE-174" value="&lt;font style=&quot;font-size: 6px;&quot;&gt;write_en&lt;/font&gt;" style="text;html=1;strokeColor=none;fillColor=none;align=left;verticalAlign=middle;whiteSpace=wrap;rounded=0;" parent="AD1-2I_FPRvKC91VBRbE-171" vertex="1">
          <mxGeometry y="30" width="30" height="10" as="geometry" />
        </mxCell>
        <mxCell id="AD1-2I_FPRvKC91VBRbE-175" value="&lt;font style=&quot;font-size: 6px;&quot;&gt;clk&lt;br&gt;&lt;/font&gt;" style="text;html=1;strokeColor=none;fillColor=none;align=left;verticalAlign=middle;whiteSpace=wrap;rounded=0;" parent="AD1-2I_FPRvKC91VBRbE-171" vertex="1">
          <mxGeometry y="50" width="30" height="10" as="geometry" />
        </mxCell>
        <mxCell id="AD1-2I_FPRvKC91VBRbE-176" value="&lt;font style=&quot;font-size: 6px;&quot;&gt;out_en&lt;br&gt;&lt;/font&gt;" style="text;html=1;strokeColor=none;fillColor=none;align=left;verticalAlign=middle;whiteSpace=wrap;rounded=0;" parent="AD1-2I_FPRvKC91VBRbE-171" vertex="1">
          <mxGeometry y="40" width="30" height="10" as="geometry" />
        </mxCell>
        <mxCell id="AD1-2I_FPRvKC91VBRbE-177" value="&lt;span style=&quot;font-size: 6px;&quot;&gt;reg_in&lt;/span&gt;" style="text;html=1;strokeColor=none;fillColor=none;align=left;verticalAlign=middle;whiteSpace=wrap;rounded=0;" parent="AD1-2I_FPRvKC91VBRbE-171" vertex="1">
          <mxGeometry y="10" width="30" height="10" as="geometry" />
        </mxCell>
        <mxCell id="AD1-2I_FPRvKC91VBRbE-178" value="&lt;span style=&quot;font-size: 6px;&quot;&gt;reg_out&lt;/span&gt;" style="text;html=1;strokeColor=none;fillColor=none;align=right;verticalAlign=middle;whiteSpace=wrap;rounded=0;" parent="AD1-2I_FPRvKC91VBRbE-171" vertex="1">
          <mxGeometry x="30" y="10" width="30" height="10" as="geometry" />
        </mxCell>
        <mxCell id="EItInm1hr8_x_I-9Iyxo-9" value="&lt;span style=&quot;font-size: 6px;&quot;&gt;reg_out_direct&lt;/span&gt;" style="text;html=1;strokeColor=none;fillColor=none;align=right;verticalAlign=middle;whiteSpace=wrap;rounded=0;" vertex="1" parent="AD1-2I_FPRvKC91VBRbE-171">
          <mxGeometry x="20" y="20" width="40" height="10" as="geometry" />
        </mxCell>
        <mxCell id="AD1-2I_FPRvKC91VBRbE-179" value="" style="edgeStyle=orthogonalEdgeStyle;shape=connector;rounded=0;orthogonalLoop=1;jettySize=auto;html=1;entryDx=0;entryDy=0;labelBackgroundColor=default;strokeColor=default;fontFamily=Helvetica;fontSize=11;fontColor=default;endArrow=none;" parent="1" edge="1">
          <mxGeometry relative="1" as="geometry">
            <mxPoint x="710" y="180" as="sourcePoint" />
            <mxPoint x="710" y="180" as="targetPoint" />
            <Array as="points" />
          </mxGeometry>
        </mxCell>
        <mxCell id="AD1-2I_FPRvKC91VBRbE-181" style="edgeStyle=orthogonalEdgeStyle;shape=connector;rounded=0;orthogonalLoop=1;jettySize=auto;html=1;entryX=0;entryY=0.5;entryDx=0;entryDy=0;labelBackgroundColor=default;strokeColor=default;fontFamily=Helvetica;fontSize=11;fontColor=default;endArrow=none;exitDx=0;exitDy=0;" parent="1" source="AD1-2I_FPRvKC91VBRbE-226" target="hdAm_U4ZvtJkM7ybA8hB-17" edge="1">
          <mxGeometry relative="1" as="geometry">
            <mxPoint x="320" y="190" as="sourcePoint" />
            <Array as="points">
              <mxPoint x="1190" y="170" />
              <mxPoint x="1190" y="373" />
              <mxPoint x="1220" y="373" />
            </Array>
          </mxGeometry>
        </mxCell>
        <mxCell id="AD1-2I_FPRvKC91VBRbE-186" value="" style="edgeStyle=orthogonalEdgeStyle;shape=connector;rounded=0;orthogonalLoop=1;jettySize=auto;html=1;entryDx=0;entryDy=0;labelBackgroundColor=default;strokeColor=default;fontFamily=Helvetica;fontSize=11;fontColor=default;endArrow=none;exitDx=0;exitDy=0;" parent="1" source="AD1-2I_FPRvKC91VBRbE-241" target="AD1-2I_FPRvKC91VBRbE-185" edge="1">
          <mxGeometry relative="1" as="geometry">
            <mxPoint x="220" y="258" as="sourcePoint" />
            <mxPoint x="1330" y="373" as="targetPoint" />
            <Array as="points">
              <mxPoint x="200" y="170" />
            </Array>
          </mxGeometry>
        </mxCell>
        <mxCell id="AD1-2I_FPRvKC91VBRbE-185" value="" style="shape=waypoint;sketch=0;fillStyle=solid;size=6;pointerEvents=1;points=[];fillColor=none;resizable=0;rotatable=0;perimeter=centerPerimeter;snapToPoint=1;fontFamily=Helvetica;fontSize=11;fontColor=default;" parent="1" vertex="1">
          <mxGeometry x="290" y="160" width="20" height="20" as="geometry" />
        </mxCell>
        <mxCell id="AD1-2I_FPRvKC91VBRbE-187" style="edgeStyle=orthogonalEdgeStyle;shape=connector;rounded=0;orthogonalLoop=1;jettySize=auto;html=1;exitX=1;exitY=0.75;exitDx=0;exitDy=0;entryX=0.6;entryY=0.928;entryDx=0;entryDy=0;entryPerimeter=0;labelBackgroundColor=default;strokeColor=default;fontFamily=Helvetica;fontSize=11;fontColor=default;endArrow=none;" parent="1" source="AD1-2I_FPRvKC91VBRbE-105" target="AD1-2I_FPRvKC91VBRbE-185" edge="1">
          <mxGeometry relative="1" as="geometry" />
        </mxCell>
        <mxCell id="AD1-2I_FPRvKC91VBRbE-189" value="" style="edgeStyle=orthogonalEdgeStyle;shape=connector;rounded=0;orthogonalLoop=1;jettySize=auto;html=1;entryDx=0;entryDy=0;labelBackgroundColor=default;strokeColor=default;fontFamily=Helvetica;fontSize=11;fontColor=default;endArrow=none;exitDx=0;exitDy=0;" parent="1" source="AD1-2I_FPRvKC91VBRbE-185" target="AD1-2I_FPRvKC91VBRbE-188" edge="1">
          <mxGeometry relative="1" as="geometry">
            <mxPoint x="300" y="170" as="sourcePoint" />
            <mxPoint x="1330" y="373" as="targetPoint" />
            <Array as="points" />
          </mxGeometry>
        </mxCell>
        <mxCell id="AD1-2I_FPRvKC91VBRbE-188" value="" style="shape=waypoint;sketch=0;fillStyle=solid;size=6;pointerEvents=1;points=[];fillColor=none;resizable=0;rotatable=0;perimeter=centerPerimeter;snapToPoint=1;fontFamily=Helvetica;fontSize=11;fontColor=default;" parent="1" vertex="1">
          <mxGeometry x="310" y="160" width="20" height="20" as="geometry" />
        </mxCell>
        <mxCell id="AD1-2I_FPRvKC91VBRbE-190" style="edgeStyle=orthogonalEdgeStyle;shape=connector;rounded=0;orthogonalLoop=1;jettySize=auto;html=1;exitX=0;exitY=0.75;exitDx=0;exitDy=0;labelBackgroundColor=default;strokeColor=default;fontFamily=Helvetica;fontSize=11;fontColor=default;endArrow=none;" parent="1" source="AD1-2I_FPRvKC91VBRbE-128" target="AD1-2I_FPRvKC91VBRbE-188" edge="1">
          <mxGeometry relative="1" as="geometry" />
        </mxCell>
        <mxCell id="AD1-2I_FPRvKC91VBRbE-191" value="" style="shape=waypoint;sketch=0;fillStyle=solid;size=6;pointerEvents=1;points=[];fillColor=none;resizable=0;rotatable=0;perimeter=centerPerimeter;snapToPoint=1;fontFamily=Helvetica;fontSize=11;fontColor=default;" parent="1" vertex="1">
          <mxGeometry x="410" y="160" width="20" height="20" as="geometry" />
        </mxCell>
        <mxCell id="AD1-2I_FPRvKC91VBRbE-192" value="" style="shape=waypoint;sketch=0;fillStyle=solid;size=6;pointerEvents=1;points=[];fillColor=none;resizable=0;rotatable=0;perimeter=centerPerimeter;snapToPoint=1;fontFamily=Helvetica;fontSize=11;fontColor=default;" parent="1" vertex="1">
          <mxGeometry x="430" y="160" width="20" height="20" as="geometry" />
        </mxCell>
        <mxCell id="AD1-2I_FPRvKC91VBRbE-193" style="edgeStyle=orthogonalEdgeStyle;shape=connector;rounded=0;orthogonalLoop=1;jettySize=auto;html=1;exitX=1;exitY=0.75;exitDx=0;exitDy=0;labelBackgroundColor=default;strokeColor=default;fontFamily=Helvetica;fontSize=11;fontColor=default;endArrow=none;" parent="1" source="AD1-2I_FPRvKC91VBRbE-129" target="AD1-2I_FPRvKC91VBRbE-191" edge="1">
          <mxGeometry relative="1" as="geometry" />
        </mxCell>
        <mxCell id="AD1-2I_FPRvKC91VBRbE-194" style="edgeStyle=orthogonalEdgeStyle;shape=connector;rounded=0;orthogonalLoop=1;jettySize=auto;html=1;exitX=0;exitY=0.75;exitDx=0;exitDy=0;entryX=0.565;entryY=0.892;entryDx=0;entryDy=0;entryPerimeter=0;labelBackgroundColor=default;strokeColor=default;fontFamily=Helvetica;fontSize=11;fontColor=default;endArrow=none;" parent="1" source="AD1-2I_FPRvKC91VBRbE-136" target="AD1-2I_FPRvKC91VBRbE-192" edge="1">
          <mxGeometry relative="1" as="geometry" />
        </mxCell>
        <mxCell id="AD1-2I_FPRvKC91VBRbE-196" value="" style="edgeStyle=orthogonalEdgeStyle;shape=connector;rounded=0;orthogonalLoop=1;jettySize=auto;html=1;entryDx=0;entryDy=0;labelBackgroundColor=default;strokeColor=default;fontFamily=Helvetica;fontSize=11;fontColor=default;endArrow=none;exitDx=0;exitDy=0;" parent="1" source="AD1-2I_FPRvKC91VBRbE-188" target="AD1-2I_FPRvKC91VBRbE-195" edge="1">
          <mxGeometry relative="1" as="geometry">
            <mxPoint x="320" y="170" as="sourcePoint" />
            <mxPoint x="1330" y="373" as="targetPoint" />
            <Array as="points" />
          </mxGeometry>
        </mxCell>
        <mxCell id="AD1-2I_FPRvKC91VBRbE-195" value="" style="shape=waypoint;sketch=0;fillStyle=solid;size=6;pointerEvents=1;points=[];fillColor=none;resizable=0;rotatable=0;perimeter=centerPerimeter;snapToPoint=1;fontFamily=Helvetica;fontSize=11;fontColor=default;" parent="1" vertex="1">
          <mxGeometry x="530" y="160" width="20" height="20" as="geometry" />
        </mxCell>
        <mxCell id="AD1-2I_FPRvKC91VBRbE-197" style="edgeStyle=orthogonalEdgeStyle;shape=connector;rounded=0;orthogonalLoop=1;jettySize=auto;html=1;exitX=1;exitY=0.75;exitDx=0;exitDy=0;labelBackgroundColor=default;strokeColor=default;fontFamily=Helvetica;fontSize=11;fontColor=default;endArrow=none;" parent="1" source="AD1-2I_FPRvKC91VBRbE-137" target="AD1-2I_FPRvKC91VBRbE-195" edge="1">
          <mxGeometry relative="1" as="geometry" />
        </mxCell>
        <mxCell id="AD1-2I_FPRvKC91VBRbE-199" value="" style="edgeStyle=orthogonalEdgeStyle;shape=connector;rounded=0;orthogonalLoop=1;jettySize=auto;html=1;entryDx=0;entryDy=0;labelBackgroundColor=default;strokeColor=default;fontFamily=Helvetica;fontSize=11;fontColor=default;endArrow=none;exitDx=0;exitDy=0;" parent="1" source="AD1-2I_FPRvKC91VBRbE-195" target="AD1-2I_FPRvKC91VBRbE-198" edge="1">
          <mxGeometry relative="1" as="geometry">
            <mxPoint x="540" y="170" as="sourcePoint" />
            <mxPoint x="1330" y="373" as="targetPoint" />
            <Array as="points" />
          </mxGeometry>
        </mxCell>
        <mxCell id="AD1-2I_FPRvKC91VBRbE-198" value="" style="shape=waypoint;sketch=0;fillStyle=solid;size=6;pointerEvents=1;points=[];fillColor=none;resizable=0;rotatable=0;perimeter=centerPerimeter;snapToPoint=1;fontFamily=Helvetica;fontSize=11;fontColor=default;" parent="1" vertex="1">
          <mxGeometry x="550" y="160" width="20" height="20" as="geometry" />
        </mxCell>
        <mxCell id="AD1-2I_FPRvKC91VBRbE-200" style="edgeStyle=orthogonalEdgeStyle;shape=connector;rounded=0;orthogonalLoop=1;jettySize=auto;html=1;exitX=0;exitY=0.75;exitDx=0;exitDy=0;labelBackgroundColor=default;strokeColor=default;fontFamily=Helvetica;fontSize=11;fontColor=default;endArrow=none;" parent="1" source="AD1-2I_FPRvKC91VBRbE-144" target="AD1-2I_FPRvKC91VBRbE-198" edge="1">
          <mxGeometry relative="1" as="geometry" />
        </mxCell>
        <mxCell id="AD1-2I_FPRvKC91VBRbE-202" value="" style="edgeStyle=orthogonalEdgeStyle;shape=connector;rounded=0;orthogonalLoop=1;jettySize=auto;html=1;entryDx=0;entryDy=0;labelBackgroundColor=default;strokeColor=default;fontFamily=Helvetica;fontSize=11;fontColor=default;endArrow=none;exitDx=0;exitDy=0;" parent="1" source="AD1-2I_FPRvKC91VBRbE-198" target="AD1-2I_FPRvKC91VBRbE-201" edge="1">
          <mxGeometry relative="1" as="geometry">
            <mxPoint x="560" y="170" as="sourcePoint" />
            <mxPoint x="1330" y="373" as="targetPoint" />
            <Array as="points" />
          </mxGeometry>
        </mxCell>
        <mxCell id="AD1-2I_FPRvKC91VBRbE-201" value="" style="shape=waypoint;sketch=0;fillStyle=solid;size=6;pointerEvents=1;points=[];fillColor=none;resizable=0;rotatable=0;perimeter=centerPerimeter;snapToPoint=1;fontFamily=Helvetica;fontSize=11;fontColor=default;" parent="1" vertex="1">
          <mxGeometry x="650" y="160" width="20" height="20" as="geometry" />
        </mxCell>
        <mxCell id="AD1-2I_FPRvKC91VBRbE-203" style="edgeStyle=orthogonalEdgeStyle;shape=connector;rounded=0;orthogonalLoop=1;jettySize=auto;html=1;exitX=1;exitY=0.75;exitDx=0;exitDy=0;labelBackgroundColor=default;strokeColor=default;fontFamily=Helvetica;fontSize=11;fontColor=default;endArrow=none;" parent="1" source="AD1-2I_FPRvKC91VBRbE-145" target="AD1-2I_FPRvKC91VBRbE-201" edge="1">
          <mxGeometry relative="1" as="geometry" />
        </mxCell>
        <mxCell id="AD1-2I_FPRvKC91VBRbE-205" value="" style="edgeStyle=orthogonalEdgeStyle;shape=connector;rounded=0;orthogonalLoop=1;jettySize=auto;html=1;entryDx=0;entryDy=0;labelBackgroundColor=default;strokeColor=default;fontFamily=Helvetica;fontSize=11;fontColor=default;endArrow=none;exitDx=0;exitDy=0;" parent="1" source="AD1-2I_FPRvKC91VBRbE-201" target="AD1-2I_FPRvKC91VBRbE-204" edge="1">
          <mxGeometry relative="1" as="geometry">
            <mxPoint x="660" y="170" as="sourcePoint" />
            <mxPoint x="1330" y="373" as="targetPoint" />
            <Array as="points" />
          </mxGeometry>
        </mxCell>
        <mxCell id="AD1-2I_FPRvKC91VBRbE-204" value="" style="shape=waypoint;sketch=0;fillStyle=solid;size=6;pointerEvents=1;points=[];fillColor=none;resizable=0;rotatable=0;perimeter=centerPerimeter;snapToPoint=1;fontFamily=Helvetica;fontSize=11;fontColor=default;" parent="1" vertex="1">
          <mxGeometry x="670" y="160" width="20" height="20" as="geometry" />
        </mxCell>
        <mxCell id="AD1-2I_FPRvKC91VBRbE-206" style="edgeStyle=orthogonalEdgeStyle;shape=connector;rounded=0;orthogonalLoop=1;jettySize=auto;html=1;exitX=0;exitY=0.75;exitDx=0;exitDy=0;entryX=0.733;entryY=0.683;entryDx=0;entryDy=0;entryPerimeter=0;labelBackgroundColor=default;strokeColor=default;fontFamily=Helvetica;fontSize=11;fontColor=default;endArrow=none;" parent="1" source="AD1-2I_FPRvKC91VBRbE-152" target="AD1-2I_FPRvKC91VBRbE-204" edge="1">
          <mxGeometry relative="1" as="geometry" />
        </mxCell>
        <mxCell id="AD1-2I_FPRvKC91VBRbE-208" value="" style="edgeStyle=orthogonalEdgeStyle;shape=connector;rounded=0;orthogonalLoop=1;jettySize=auto;html=1;entryDx=0;entryDy=0;labelBackgroundColor=default;strokeColor=default;fontFamily=Helvetica;fontSize=11;fontColor=default;endArrow=none;exitDx=0;exitDy=0;" parent="1" source="AD1-2I_FPRvKC91VBRbE-204" target="AD1-2I_FPRvKC91VBRbE-207" edge="1">
          <mxGeometry relative="1" as="geometry">
            <mxPoint x="680" y="170" as="sourcePoint" />
            <mxPoint x="1330" y="373" as="targetPoint" />
            <Array as="points" />
          </mxGeometry>
        </mxCell>
        <mxCell id="AD1-2I_FPRvKC91VBRbE-207" value="" style="shape=waypoint;sketch=0;fillStyle=solid;size=6;pointerEvents=1;points=[];fillColor=none;resizable=0;rotatable=0;perimeter=centerPerimeter;snapToPoint=1;fontFamily=Helvetica;fontSize=11;fontColor=default;" parent="1" vertex="1">
          <mxGeometry x="770" y="160" width="20" height="20" as="geometry" />
        </mxCell>
        <mxCell id="AD1-2I_FPRvKC91VBRbE-210" value="" style="edgeStyle=orthogonalEdgeStyle;shape=connector;rounded=0;orthogonalLoop=1;jettySize=auto;html=1;entryDx=0;entryDy=0;labelBackgroundColor=default;strokeColor=default;fontFamily=Helvetica;fontSize=11;fontColor=default;endArrow=none;exitDx=0;exitDy=0;" parent="1" source="AD1-2I_FPRvKC91VBRbE-207" target="AD1-2I_FPRvKC91VBRbE-209" edge="1">
          <mxGeometry relative="1" as="geometry">
            <mxPoint x="780" y="170" as="sourcePoint" />
            <mxPoint x="1330" y="373" as="targetPoint" />
            <Array as="points" />
          </mxGeometry>
        </mxCell>
        <mxCell id="AD1-2I_FPRvKC91VBRbE-209" value="" style="shape=waypoint;sketch=0;fillStyle=solid;size=6;pointerEvents=1;points=[];fillColor=none;resizable=0;rotatable=0;perimeter=centerPerimeter;snapToPoint=1;fontFamily=Helvetica;fontSize=11;fontColor=default;" parent="1" vertex="1">
          <mxGeometry x="790" y="160" width="20" height="20" as="geometry" />
        </mxCell>
        <mxCell id="AD1-2I_FPRvKC91VBRbE-211" style="edgeStyle=orthogonalEdgeStyle;shape=connector;rounded=0;orthogonalLoop=1;jettySize=auto;html=1;exitX=1;exitY=0.75;exitDx=0;exitDy=0;entryX=0.632;entryY=0.777;entryDx=0;entryDy=0;entryPerimeter=0;labelBackgroundColor=default;strokeColor=default;fontFamily=Helvetica;fontSize=11;fontColor=default;endArrow=none;" parent="1" source="AD1-2I_FPRvKC91VBRbE-153" target="AD1-2I_FPRvKC91VBRbE-207" edge="1">
          <mxGeometry relative="1" as="geometry" />
        </mxCell>
        <mxCell id="AD1-2I_FPRvKC91VBRbE-212" style="edgeStyle=orthogonalEdgeStyle;shape=connector;rounded=0;orthogonalLoop=1;jettySize=auto;html=1;exitX=0;exitY=0.75;exitDx=0;exitDy=0;entryX=0.577;entryY=0.795;entryDx=0;entryDy=0;entryPerimeter=0;labelBackgroundColor=default;strokeColor=default;fontFamily=Helvetica;fontSize=11;fontColor=default;endArrow=none;" parent="1" source="AD1-2I_FPRvKC91VBRbE-161" target="AD1-2I_FPRvKC91VBRbE-209" edge="1">
          <mxGeometry relative="1" as="geometry" />
        </mxCell>
        <mxCell id="AD1-2I_FPRvKC91VBRbE-214" value="" style="edgeStyle=orthogonalEdgeStyle;shape=connector;rounded=0;orthogonalLoop=1;jettySize=auto;html=1;entryDx=0;entryDy=0;labelBackgroundColor=default;strokeColor=default;fontFamily=Helvetica;fontSize=11;fontColor=default;endArrow=none;exitDx=0;exitDy=0;" parent="1" source="AD1-2I_FPRvKC91VBRbE-209" target="AD1-2I_FPRvKC91VBRbE-213" edge="1">
          <mxGeometry relative="1" as="geometry">
            <mxPoint x="800" y="170" as="sourcePoint" />
            <mxPoint x="1330" y="373" as="targetPoint" />
            <Array as="points" />
          </mxGeometry>
        </mxCell>
        <mxCell id="AD1-2I_FPRvKC91VBRbE-213" value="" style="shape=waypoint;sketch=0;fillStyle=solid;size=6;pointerEvents=1;points=[];fillColor=none;resizable=0;rotatable=0;perimeter=centerPerimeter;snapToPoint=1;fontFamily=Helvetica;fontSize=11;fontColor=default;" parent="1" vertex="1">
          <mxGeometry x="890" y="160" width="20" height="20" as="geometry" />
        </mxCell>
        <mxCell id="AD1-2I_FPRvKC91VBRbE-216" value="" style="edgeStyle=orthogonalEdgeStyle;shape=connector;rounded=0;orthogonalLoop=1;jettySize=auto;html=1;entryDx=0;entryDy=0;labelBackgroundColor=default;strokeColor=default;fontFamily=Helvetica;fontSize=11;fontColor=default;endArrow=none;exitDx=0;exitDy=0;" parent="1" source="AD1-2I_FPRvKC91VBRbE-213" target="AD1-2I_FPRvKC91VBRbE-215" edge="1">
          <mxGeometry relative="1" as="geometry">
            <mxPoint x="900" y="170" as="sourcePoint" />
            <mxPoint x="1330" y="373" as="targetPoint" />
            <Array as="points" />
          </mxGeometry>
        </mxCell>
        <mxCell id="AD1-2I_FPRvKC91VBRbE-215" value="" style="shape=waypoint;sketch=0;fillStyle=solid;size=6;pointerEvents=1;points=[];fillColor=none;resizable=0;rotatable=0;perimeter=centerPerimeter;snapToPoint=1;fontFamily=Helvetica;fontSize=11;fontColor=default;" parent="1" vertex="1">
          <mxGeometry x="910" y="160" width="20" height="20" as="geometry" />
        </mxCell>
        <mxCell id="AD1-2I_FPRvKC91VBRbE-217" style="edgeStyle=orthogonalEdgeStyle;shape=connector;rounded=0;orthogonalLoop=1;jettySize=auto;html=1;exitX=1;exitY=0.75;exitDx=0;exitDy=0;entryX=0.632;entryY=0.741;entryDx=0;entryDy=0;entryPerimeter=0;labelBackgroundColor=default;strokeColor=default;fontFamily=Helvetica;fontSize=11;fontColor=default;endArrow=none;" parent="1" source="AD1-2I_FPRvKC91VBRbE-162" target="AD1-2I_FPRvKC91VBRbE-213" edge="1">
          <mxGeometry relative="1" as="geometry" />
        </mxCell>
        <mxCell id="AD1-2I_FPRvKC91VBRbE-218" style="edgeStyle=orthogonalEdgeStyle;shape=connector;rounded=0;orthogonalLoop=1;jettySize=auto;html=1;exitX=0;exitY=0.75;exitDx=0;exitDy=0;entryX=0.65;entryY=0.777;entryDx=0;entryDy=0;entryPerimeter=0;labelBackgroundColor=default;strokeColor=default;fontFamily=Helvetica;fontSize=11;fontColor=default;endArrow=none;" parent="1" source="AD1-2I_FPRvKC91VBRbE-169" target="AD1-2I_FPRvKC91VBRbE-215" edge="1">
          <mxGeometry relative="1" as="geometry" />
        </mxCell>
        <mxCell id="AD1-2I_FPRvKC91VBRbE-221" value="" style="edgeStyle=orthogonalEdgeStyle;shape=connector;rounded=0;orthogonalLoop=1;jettySize=auto;html=1;entryDx=0;entryDy=0;labelBackgroundColor=default;strokeColor=default;fontFamily=Helvetica;fontSize=11;fontColor=default;endArrow=none;exitDx=0;exitDy=0;" parent="1" source="AD1-2I_FPRvKC91VBRbE-215" target="AD1-2I_FPRvKC91VBRbE-220" edge="1">
          <mxGeometry relative="1" as="geometry">
            <mxPoint x="920" y="170" as="sourcePoint" />
            <mxPoint x="1330" y="373" as="targetPoint" />
            <Array as="points" />
          </mxGeometry>
        </mxCell>
        <mxCell id="AD1-2I_FPRvKC91VBRbE-220" value="" style="shape=waypoint;sketch=0;fillStyle=solid;size=6;pointerEvents=1;points=[];fillColor=none;resizable=0;rotatable=0;perimeter=centerPerimeter;snapToPoint=1;fontFamily=Helvetica;fontSize=11;fontColor=default;" parent="1" vertex="1">
          <mxGeometry x="1010" y="160" width="20" height="20" as="geometry" />
        </mxCell>
        <mxCell id="AD1-2I_FPRvKC91VBRbE-223" value="" style="edgeStyle=orthogonalEdgeStyle;shape=connector;rounded=0;orthogonalLoop=1;jettySize=auto;html=1;entryDx=0;entryDy=0;labelBackgroundColor=default;strokeColor=default;fontFamily=Helvetica;fontSize=11;fontColor=default;endArrow=none;exitDx=0;exitDy=0;" parent="1" source="AD1-2I_FPRvKC91VBRbE-220" target="AD1-2I_FPRvKC91VBRbE-222" edge="1">
          <mxGeometry relative="1" as="geometry">
            <mxPoint x="1020" y="170" as="sourcePoint" />
            <mxPoint x="1330" y="373" as="targetPoint" />
            <Array as="points" />
          </mxGeometry>
        </mxCell>
        <mxCell id="AD1-2I_FPRvKC91VBRbE-222" value="" style="shape=waypoint;sketch=0;fillStyle=solid;size=6;pointerEvents=1;points=[];fillColor=none;resizable=0;rotatable=0;perimeter=centerPerimeter;snapToPoint=1;fontFamily=Helvetica;fontSize=11;fontColor=default;" parent="1" vertex="1">
          <mxGeometry x="1030" y="160" width="20" height="20" as="geometry" />
        </mxCell>
        <mxCell id="AD1-2I_FPRvKC91VBRbE-224" style="edgeStyle=orthogonalEdgeStyle;shape=connector;rounded=0;orthogonalLoop=1;jettySize=auto;html=1;exitX=1;exitY=0.75;exitDx=0;exitDy=0;entryX=0.565;entryY=0.851;entryDx=0;entryDy=0;entryPerimeter=0;labelBackgroundColor=default;strokeColor=default;fontFamily=Helvetica;fontSize=11;fontColor=default;endArrow=none;" parent="1" source="AD1-2I_FPRvKC91VBRbE-170" target="AD1-2I_FPRvKC91VBRbE-220" edge="1">
          <mxGeometry relative="1" as="geometry" />
        </mxCell>
        <mxCell id="AD1-2I_FPRvKC91VBRbE-225" style="edgeStyle=orthogonalEdgeStyle;shape=connector;rounded=0;orthogonalLoop=1;jettySize=auto;html=1;exitDx=0;exitDy=0;entryX=0.578;entryY=0.864;entryDx=0;entryDy=0;entryPerimeter=0;labelBackgroundColor=default;strokeColor=default;fontFamily=Helvetica;fontSize=11;fontColor=default;endArrow=none;" parent="1" target="AD1-2I_FPRvKC91VBRbE-222" edge="1">
          <mxGeometry relative="1" as="geometry">
            <mxPoint x="1040" y="255" as="sourcePoint" />
          </mxGeometry>
        </mxCell>
        <mxCell id="AD1-2I_FPRvKC91VBRbE-227" value="" style="edgeStyle=orthogonalEdgeStyle;shape=connector;rounded=0;orthogonalLoop=1;jettySize=auto;html=1;entryDx=0;entryDy=0;labelBackgroundColor=default;strokeColor=default;fontFamily=Helvetica;fontSize=11;fontColor=default;endArrow=none;exitDx=0;exitDy=0;" parent="1" source="AD1-2I_FPRvKC91VBRbE-222" target="AD1-2I_FPRvKC91VBRbE-226" edge="1">
          <mxGeometry relative="1" as="geometry">
            <mxPoint x="1040" y="170" as="sourcePoint" />
            <mxPoint x="1330" y="373" as="targetPoint" />
            <Array as="points">
              <mxPoint x="210" y="170" />
            </Array>
          </mxGeometry>
        </mxCell>
        <mxCell id="AD1-2I_FPRvKC91VBRbE-226" value="" style="shape=waypoint;sketch=0;fillStyle=solid;size=6;pointerEvents=1;points=[];fillColor=none;resizable=0;rotatable=0;perimeter=centerPerimeter;snapToPoint=1;fontFamily=Helvetica;fontSize=11;fontColor=default;" parent="1" vertex="1">
          <mxGeometry x="1130" y="160" width="20" height="20" as="geometry" />
        </mxCell>
        <mxCell id="AD1-2I_FPRvKC91VBRbE-228" style="edgeStyle=orthogonalEdgeStyle;shape=connector;rounded=0;orthogonalLoop=1;jettySize=auto;html=1;exitDx=0;exitDy=0;entryX=0.546;entryY=0.896;entryDx=0;entryDy=0;entryPerimeter=0;labelBackgroundColor=default;strokeColor=default;fontFamily=Helvetica;fontSize=11;fontColor=default;endArrow=none;" parent="1" source="AD1-2I_FPRvKC91VBRbE-271" target="AD1-2I_FPRvKC91VBRbE-226" edge="1">
          <mxGeometry relative="1" as="geometry" />
        </mxCell>
        <mxCell id="AD1-2I_FPRvKC91VBRbE-229" value="&lt;font style=&quot;font-size: 8px;&quot;&gt;clk gate&lt;/font&gt;" style="rounded=0;whiteSpace=wrap;html=1;fontFamily=Helvetica;fontSize=11;fontColor=default;" parent="1" vertex="1">
          <mxGeometry x="260" y="663.75" width="50" height="40" as="geometry" />
        </mxCell>
        <mxCell id="EItInm1hr8_x_I-9Iyxo-8" style="edgeStyle=orthogonalEdgeStyle;shape=connector;rounded=0;jumpStyle=arc;orthogonalLoop=1;jettySize=auto;html=1;exitX=0;exitY=0.5;exitDx=0;exitDy=0;entryX=0.991;entryY=0.55;entryDx=0;entryDy=0;entryPerimeter=0;labelBackgroundColor=default;strokeColor=default;fontFamily=Helvetica;fontSize=11;fontColor=default;endArrow=none;" edge="1" parent="1" source="AD1-2I_FPRvKC91VBRbE-231">
          <mxGeometry relative="1" as="geometry">
            <mxPoint x="1140" y="450" as="targetPoint" />
            <Array as="points">
              <mxPoint x="140" y="393" />
              <mxPoint x="140" y="800" />
              <mxPoint x="1140" y="800" />
            </Array>
          </mxGeometry>
        </mxCell>
        <mxCell id="AD1-2I_FPRvKC91VBRbE-231" value="&lt;font style=&quot;font-size: 7px;&quot;&gt;addr_in_port_1&lt;/font&gt;" style="text;html=1;strokeColor=none;fillColor=none;align=left;verticalAlign=middle;whiteSpace=wrap;rounded=0;fontSize=7;fontFamily=Helvetica;fontColor=default;" parent="1" vertex="1">
          <mxGeometry x="200" y="386.25" width="60" height="13.75" as="geometry" />
        </mxCell>
        <mxCell id="AD1-2I_FPRvKC91VBRbE-243" style="edgeStyle=orthogonalEdgeStyle;shape=connector;rounded=0;orthogonalLoop=1;jettySize=auto;html=1;exitDx=0;exitDy=0;entryX=0.36;entryY=0.538;entryDx=0;entryDy=0;entryPerimeter=0;labelBackgroundColor=default;strokeColor=default;fontFamily=Helvetica;fontSize=11;fontColor=default;endArrow=none;jumpStyle=arc;" parent="1" target="AD1-2I_FPRvKC91VBRbE-241" edge="1">
          <mxGeometry relative="1" as="geometry">
            <Array as="points">
              <mxPoint x="160" y="171" />
              <mxPoint x="200" y="171" />
            </Array>
            <mxPoint x="160" y="409.37" as="sourcePoint" />
          </mxGeometry>
        </mxCell>
        <mxCell id="AD1-2I_FPRvKC91VBRbE-232" value="&lt;font style=&quot;font-size: 7px;&quot;&gt;data_in_port_1&lt;br style=&quot;font-size: 7px;&quot;&gt;&lt;/font&gt;" style="text;html=1;strokeColor=none;fillColor=none;align=left;verticalAlign=middle;whiteSpace=wrap;rounded=0;fontSize=7;fontFamily=Helvetica;fontColor=default;" parent="1" vertex="1">
          <mxGeometry x="200" y="402.5" width="60" height="13.75" as="geometry" />
        </mxCell>
        <mxCell id="AD1-2I_FPRvKC91VBRbE-244" style="edgeStyle=orthogonalEdgeStyle;shape=connector;rounded=0;jumpStyle=arc;orthogonalLoop=1;jettySize=auto;html=1;exitX=1;exitY=0.5;exitDx=0;exitDy=0;entryX=0;entryY=0.5;entryDx=0;entryDy=0;labelBackgroundColor=default;strokeColor=default;fontFamily=Helvetica;fontSize=11;fontColor=default;endArrow=none;" parent="1" source="AD1-2I_FPRvKC91VBRbE-233" target="AD1-2I_FPRvKC91VBRbE-120" edge="1">
          <mxGeometry relative="1" as="geometry">
            <Array as="points">
              <mxPoint x="350" y="393" />
              <mxPoint x="350" y="545" />
            </Array>
          </mxGeometry>
        </mxCell>
        <mxCell id="AD1-2I_FPRvKC91VBRbE-233" value="&lt;font style=&quot;&quot;&gt;&lt;font style=&quot;font-size: 7px;&quot;&gt;data_out_port_1&lt;/font&gt;&lt;br&gt;&lt;/font&gt;" style="text;html=1;strokeColor=none;fillColor=none;align=right;verticalAlign=middle;whiteSpace=wrap;rounded=0;fontSize=11;fontFamily=Helvetica;fontColor=default;" parent="1" vertex="1">
          <mxGeometry x="270" y="385.62" width="50" height="13.75" as="geometry" />
        </mxCell>
        <mxCell id="AD1-2I_FPRvKC91VBRbE-234" value="&lt;div style=&quot;font-size: 7px;&quot;&gt;&lt;font style=&quot;font-size: 7px;&quot;&gt;r_w_port_1&lt;/font&gt;&lt;/div&gt;" style="text;html=1;strokeColor=none;fillColor=none;align=left;verticalAlign=middle;whiteSpace=wrap;rounded=0;fontSize=7;fontFamily=Helvetica;fontColor=default;" parent="1" vertex="1">
          <mxGeometry x="200" y="416.25" width="30" height="13.75" as="geometry" />
        </mxCell>
        <mxCell id="AD1-2I_FPRvKC91VBRbE-238" style="edgeStyle=orthogonalEdgeStyle;shape=connector;rounded=0;orthogonalLoop=1;jettySize=auto;html=1;exitX=1;exitY=0.5;exitDx=0;exitDy=0;entryX=0;entryY=0.25;entryDx=0;entryDy=0;labelBackgroundColor=default;strokeColor=default;fontFamily=Helvetica;fontSize=11;fontColor=default;endArrow=none;" parent="1" source="AD1-2I_FPRvKC91VBRbE-235" target="AD1-2I_FPRvKC91VBRbE-229" edge="1">
          <mxGeometry relative="1" as="geometry" />
        </mxCell>
        <mxCell id="AD1-2I_FPRvKC91VBRbE-235" value="&lt;div style=&quot;&quot;&gt;&lt;span style=&quot;font-size: 9px; background-color: initial;&quot;&gt;en&lt;/span&gt;&lt;/div&gt;" style="text;html=1;strokeColor=none;fillColor=none;align=left;verticalAlign=middle;whiteSpace=wrap;rounded=0;fontSize=11;fontFamily=Helvetica;fontColor=default;" parent="1" vertex="1">
          <mxGeometry x="200" y="650" width="20" height="13.75" as="geometry" />
        </mxCell>
        <mxCell id="AD1-2I_FPRvKC91VBRbE-239" style="edgeStyle=orthogonalEdgeStyle;shape=connector;rounded=0;orthogonalLoop=1;jettySize=auto;html=1;exitX=1;exitY=0.5;exitDx=0;exitDy=0;entryX=0;entryY=0.5;entryDx=0;entryDy=0;labelBackgroundColor=default;strokeColor=default;fontFamily=Helvetica;fontSize=11;fontColor=default;endArrow=none;" parent="1" source="AD1-2I_FPRvKC91VBRbE-236" target="AD1-2I_FPRvKC91VBRbE-229" edge="1">
          <mxGeometry relative="1" as="geometry">
            <Array as="points">
              <mxPoint x="230" y="671" />
              <mxPoint x="230" y="684" />
            </Array>
          </mxGeometry>
        </mxCell>
        <mxCell id="AD1-2I_FPRvKC91VBRbE-236" value="&lt;div style=&quot;&quot;&gt;&lt;span style=&quot;font-size: 9px; background-color: initial;&quot;&gt;clk&lt;/span&gt;&lt;/div&gt;" style="text;html=1;strokeColor=none;fillColor=none;align=left;verticalAlign=middle;whiteSpace=wrap;rounded=0;fontSize=11;fontFamily=Helvetica;fontColor=default;" parent="1" vertex="1">
          <mxGeometry x="200" y="663.75" width="20" height="13.75" as="geometry" />
        </mxCell>
        <mxCell id="AD1-2I_FPRvKC91VBRbE-240" style="edgeStyle=orthogonalEdgeStyle;shape=connector;rounded=0;orthogonalLoop=1;jettySize=auto;html=1;exitDx=0;exitDy=0;entryX=0;entryY=0.5;entryDx=0;entryDy=0;labelBackgroundColor=default;strokeColor=default;fontFamily=Helvetica;fontSize=11;fontColor=default;endArrow=none;jumpStyle=arc;exitPerimeter=0;" parent="1" source="AD1-2I_FPRvKC91VBRbE-293" target="AD1-2I_FPRvKC91VBRbE-232" edge="1">
          <mxGeometry relative="1" as="geometry">
            <Array as="points">
              <mxPoint x="180" y="410" />
              <mxPoint x="200" y="410" />
            </Array>
          </mxGeometry>
        </mxCell>
        <mxCell id="AD1-2I_FPRvKC91VBRbE-242" value="" style="edgeStyle=orthogonalEdgeStyle;shape=connector;rounded=0;orthogonalLoop=1;jettySize=auto;html=1;entryDx=0;entryDy=0;labelBackgroundColor=default;strokeColor=default;fontFamily=Helvetica;fontSize=11;fontColor=default;endArrow=none;exitX=0;exitY=0.75;exitDx=0;exitDy=0;" parent="1" source="AD1-2I_FPRvKC91VBRbE-104" target="AD1-2I_FPRvKC91VBRbE-241" edge="1">
          <mxGeometry relative="1" as="geometry">
            <mxPoint x="220" y="257" as="sourcePoint" />
            <mxPoint x="300" y="170" as="targetPoint" />
            <Array as="points">
              <mxPoint x="200" y="258" />
            </Array>
          </mxGeometry>
        </mxCell>
        <mxCell id="AD1-2I_FPRvKC91VBRbE-241" value="" style="shape=waypoint;sketch=0;fillStyle=solid;size=6;pointerEvents=1;points=[];fillColor=none;resizable=0;rotatable=0;perimeter=centerPerimeter;snapToPoint=1;fontFamily=Helvetica;fontSize=11;fontColor=default;" parent="1" vertex="1">
          <mxGeometry x="190" y="160" width="20" height="20" as="geometry" />
        </mxCell>
        <mxCell id="AD1-2I_FPRvKC91VBRbE-257" style="edgeStyle=orthogonalEdgeStyle;shape=connector;rounded=0;jumpStyle=arc;orthogonalLoop=1;jettySize=auto;html=1;exitX=0;exitY=0.75;exitDx=0;exitDy=0;entryX=0.711;entryY=0.581;entryDx=0;entryDy=0;entryPerimeter=0;labelBackgroundColor=default;strokeColor=default;fontFamily=Helvetica;fontSize=11;fontColor=default;endArrow=none;" parent="1" source="AD1-2I_FPRvKC91VBRbE-245" target="AD1-2I_FPRvKC91VBRbE-252" edge="1">
          <mxGeometry relative="1" as="geometry" />
        </mxCell>
        <mxCell id="AD1-2I_FPRvKC91VBRbE-245" value="&lt;font style=&quot;font-size: 9px;&quot;&gt;adder&lt;/font&gt;" style="rounded=0;whiteSpace=wrap;html=1;fontFamily=Helvetica;fontSize=11;fontColor=default;" parent="1" vertex="1">
          <mxGeometry x="630" y="600" width="40" height="50" as="geometry" />
        </mxCell>
        <mxCell id="pn1axEp1Zz7bbhyXCy7V-7" style="edgeStyle=orthogonalEdgeStyle;shape=connector;rounded=0;jumpStyle=arc;orthogonalLoop=1;jettySize=auto;html=1;exitX=0.5;exitY=0;exitDx=0;exitDy=0;entryX=0;entryY=0.25;entryDx=0;entryDy=0;labelBackgroundColor=default;strokeColor=default;fontFamily=Helvetica;fontSize=11;fontColor=default;endArrow=none;" parent="1" source="AD1-2I_FPRvKC91VBRbE-246" target="AD1-2I_FPRvKC91VBRbE-245" edge="1">
          <mxGeometry relative="1" as="geometry">
            <Array as="points">
              <mxPoint x="620" y="602" />
              <mxPoint x="620" y="613" />
            </Array>
          </mxGeometry>
        </mxCell>
        <mxCell id="AD1-2I_FPRvKC91VBRbE-246" value="" style="shape=trapezoid;perimeter=trapezoidPerimeter;whiteSpace=wrap;html=1;fixedSize=1;fontFamily=Helvetica;fontSize=11;fontColor=default;rotation=90;size=10.000000000000114;" parent="1" vertex="1">
          <mxGeometry x="570" y="593.3299999999999" width="50" height="16.67" as="geometry" />
        </mxCell>
        <mxCell id="AD1-2I_FPRvKC91VBRbE-297" style="edgeStyle=orthogonalEdgeStyle;shape=connector;rounded=0;jumpStyle=arc;orthogonalLoop=1;jettySize=auto;html=1;exitX=1;exitY=0.5;exitDx=0;exitDy=0;entryX=0.75;entryY=1;entryDx=0;entryDy=0;labelBackgroundColor=default;strokeColor=default;fontFamily=Helvetica;fontSize=11;fontColor=default;endArrow=none;" parent="1" source="AD1-2I_FPRvKC91VBRbE-247" target="AD1-2I_FPRvKC91VBRbE-246" edge="1">
          <mxGeometry relative="1" as="geometry" />
        </mxCell>
        <mxCell id="AD1-2I_FPRvKC91VBRbE-247" value="1" style="text;html=1;strokeColor=none;fillColor=none;align=center;verticalAlign=middle;whiteSpace=wrap;rounded=0;fontSize=11;fontFamily=Helvetica;fontColor=default;" parent="1" vertex="1">
          <mxGeometry x="550" y="600" width="20" height="20" as="geometry" />
        </mxCell>
        <mxCell id="AD1-2I_FPRvKC91VBRbE-251" value="" style="group" parent="1" vertex="1" connectable="0">
          <mxGeometry x="390" y="380" width="140" height="80" as="geometry" />
        </mxCell>
        <mxCell id="AD1-2I_FPRvKC91VBRbE-51" value="" style="rounded=0;whiteSpace=wrap;html=1;" parent="AD1-2I_FPRvKC91VBRbE-251" vertex="1">
          <mxGeometry width="140" height="80" as="geometry" />
        </mxCell>
        <mxCell id="AD1-2I_FPRvKC91VBRbE-249" value="&lt;font style=&quot;font-size: 7px;&quot;&gt;imm[3:0]&lt;/font&gt;" style="text;html=1;strokeColor=none;fillColor=none;align=right;verticalAlign=middle;whiteSpace=wrap;rounded=0;fontSize=11;fontFamily=Helvetica;fontColor=default;" parent="AD1-2I_FPRvKC91VBRbE-251" vertex="1">
          <mxGeometry x="105" y="56.25" width="35" height="13.75" as="geometry" />
        </mxCell>
        <mxCell id="AD1-2I_FPRvKC91VBRbE-300" value="Instruction Decoder" style="text;html=1;strokeColor=none;fillColor=none;align=center;verticalAlign=middle;whiteSpace=wrap;rounded=0;fontSize=11;fontFamily=Helvetica;fontColor=default;" parent="AD1-2I_FPRvKC91VBRbE-251" vertex="1">
          <mxGeometry x="20" width="100" height="20" as="geometry" />
        </mxCell>
        <mxCell id="AD1-2I_FPRvKC91VBRbE-302" value="&lt;font style=&quot;font-size: 7px;&quot;&gt;&amp;lt;instruction&amp;gt;_en&lt;/font&gt;" style="text;html=1;strokeColor=none;fillColor=none;align=right;verticalAlign=middle;whiteSpace=wrap;rounded=0;fontSize=11;fontFamily=Helvetica;fontColor=default;" parent="AD1-2I_FPRvKC91VBRbE-251" vertex="1">
          <mxGeometry x="80" y="28.75" width="60" height="13.75" as="geometry" />
        </mxCell>
        <mxCell id="AD1-2I_FPRvKC91VBRbE-252" value="" style="shape=waypoint;sketch=0;fillStyle=solid;size=6;pointerEvents=1;points=[];fillColor=none;resizable=0;rotatable=0;perimeter=centerPerimeter;snapToPoint=1;fontFamily=Helvetica;fontSize=11;fontColor=default;" parent="1" vertex="1">
          <mxGeometry x="450" y="640" width="20" height="20" as="geometry" />
        </mxCell>
        <mxCell id="AD1-2I_FPRvKC91VBRbE-256" style="edgeStyle=orthogonalEdgeStyle;shape=connector;rounded=0;jumpStyle=arc;orthogonalLoop=1;jettySize=auto;html=1;exitX=1;exitY=1;exitDx=0;exitDy=0;labelBackgroundColor=default;strokeColor=default;fontFamily=Helvetica;fontSize=11;fontColor=default;endArrow=none;" parent="1" source="AD1-2I_FPRvKC91VBRbE-113" target="AD1-2I_FPRvKC91VBRbE-252" edge="1">
          <mxGeometry relative="1" as="geometry" />
        </mxCell>
        <mxCell id="AD1-2I_FPRvKC91VBRbE-262" value="Bus Control" style="rounded=0;whiteSpace=wrap;html=1;fontFamily=Helvetica;fontSize=11;fontColor=default;" parent="1" vertex="1">
          <mxGeometry x="700" y="380" width="300" height="160" as="geometry" />
        </mxCell>
        <mxCell id="AD1-2I_FPRvKC91VBRbE-265" value="" style="edgeStyle=orthogonalEdgeStyle;shape=connector;rounded=0;orthogonalLoop=1;jettySize=auto;html=1;exitDx=0;exitDy=0;entryDx=0;entryDy=0;entryPerimeter=0;labelBackgroundColor=default;strokeColor=default;fontFamily=Helvetica;fontSize=11;fontColor=default;endArrow=none;" parent="1" edge="1">
          <mxGeometry relative="1" as="geometry">
            <mxPoint x="1040" y="255" as="sourcePoint" />
            <mxPoint x="1040" y="255" as="targetPoint" />
          </mxGeometry>
        </mxCell>
        <mxCell id="AD1-2I_FPRvKC91VBRbE-268" value="" style="edgeStyle=orthogonalEdgeStyle;shape=connector;rounded=0;orthogonalLoop=1;jettySize=auto;html=1;exitX=0;exitY=0.75;exitDx=0;exitDy=0;entryDx=0;entryDy=0;entryPerimeter=0;labelBackgroundColor=default;strokeColor=default;fontFamily=Helvetica;fontSize=11;fontColor=default;endArrow=none;" parent="1" source="AD1-2I_FPRvKC91VBRbE-177" edge="1">
          <mxGeometry relative="1" as="geometry">
            <mxPoint x="1060" y="258" as="sourcePoint" />
            <mxPoint x="1040" y="255" as="targetPoint" />
          </mxGeometry>
        </mxCell>
        <mxCell id="AD1-2I_FPRvKC91VBRbE-269" value="" style="shape=waypoint;sketch=0;fillStyle=solid;size=6;pointerEvents=1;points=[];fillColor=none;resizable=0;rotatable=0;perimeter=centerPerimeter;snapToPoint=1;fontFamily=Helvetica;fontSize=11;fontColor=default;" parent="1" vertex="1">
          <mxGeometry x="1030" y="248" width="20" height="20" as="geometry" />
        </mxCell>
        <mxCell id="AD1-2I_FPRvKC91VBRbE-270" style="edgeStyle=orthogonalEdgeStyle;shape=connector;rounded=0;jumpStyle=arc;orthogonalLoop=1;jettySize=auto;html=1;exitX=1;exitY=0.5;exitDx=0;exitDy=0;entryX=0.505;entryY=0.882;entryDx=0;entryDy=0;entryPerimeter=0;labelBackgroundColor=default;strokeColor=default;fontFamily=Helvetica;fontSize=11;fontColor=default;endArrow=none;" parent="1" source="AD1-2I_FPRvKC91VBRbE-3" target="AD1-2I_FPRvKC91VBRbE-269" edge="1">
          <mxGeometry relative="1" as="geometry">
            <Array as="points">
              <mxPoint x="1345" y="409" />
              <mxPoint x="1345" y="520" />
              <mxPoint x="1040" y="520" />
            </Array>
          </mxGeometry>
        </mxCell>
        <mxCell id="AD1-2I_FPRvKC91VBRbE-272" value="" style="edgeStyle=orthogonalEdgeStyle;shape=connector;rounded=0;orthogonalLoop=1;jettySize=auto;html=1;exitX=1;exitY=0.75;exitDx=0;exitDy=0;entryDx=0;entryDy=0;entryPerimeter=0;labelBackgroundColor=default;strokeColor=default;fontFamily=Helvetica;fontSize=11;fontColor=default;endArrow=none;" parent="1" source="AD1-2I_FPRvKC91VBRbE-178" target="AD1-2I_FPRvKC91VBRbE-271" edge="1">
          <mxGeometry relative="1" as="geometry">
            <mxPoint x="1120" y="258" as="sourcePoint" />
            <mxPoint x="1140" y="170" as="targetPoint" />
          </mxGeometry>
        </mxCell>
        <mxCell id="AD1-2I_FPRvKC91VBRbE-271" value="" style="shape=waypoint;sketch=0;fillStyle=solid;size=6;pointerEvents=1;points=[];fillColor=none;resizable=0;rotatable=0;perimeter=centerPerimeter;snapToPoint=1;fontFamily=Helvetica;fontSize=11;fontColor=default;" parent="1" vertex="1">
          <mxGeometry x="1130" y="248" width="20" height="20" as="geometry" />
        </mxCell>
        <mxCell id="AD1-2I_FPRvKC91VBRbE-275" style="edgeStyle=orthogonalEdgeStyle;shape=connector;rounded=0;jumpStyle=arc;orthogonalLoop=1;jettySize=auto;html=1;exitX=1;exitY=0.5;exitDx=0;exitDy=0;entryX=0;entryY=0.75;entryDx=0;entryDy=0;labelBackgroundColor=default;strokeColor=default;fontFamily=Helvetica;fontSize=11;fontColor=default;endArrow=none;" parent="1" source="AD1-2I_FPRvKC91VBRbE-121" target="AD1-2I_FPRvKC91VBRbE-51" edge="1">
          <mxGeometry relative="1" as="geometry">
            <Array as="points">
              <mxPoint x="450" y="545" />
              <mxPoint x="450" y="490" />
              <mxPoint x="370" y="490" />
              <mxPoint x="370" y="420" />
            </Array>
          </mxGeometry>
        </mxCell>
        <mxCell id="AD1-2I_FPRvKC91VBRbE-278" value="" style="endArrow=none;dashed=1;html=1;strokeWidth=1;rounded=0;labelBackgroundColor=default;strokeColor=default;fontFamily=Helvetica;fontSize=11;fontColor=default;shape=connector;jumpStyle=arc;" parent="1" edge="1">
          <mxGeometry width="50" height="50" relative="1" as="geometry">
            <mxPoint x="360" y="360" as="sourcePoint" />
            <mxPoint x="1020" y="360" as="targetPoint" />
          </mxGeometry>
        </mxCell>
        <mxCell id="AD1-2I_FPRvKC91VBRbE-279" value="" style="endArrow=none;dashed=1;html=1;strokeWidth=1;rounded=0;labelBackgroundColor=default;strokeColor=default;fontFamily=Helvetica;fontSize=11;fontColor=default;shape=connector;jumpStyle=arc;" parent="1" edge="1">
          <mxGeometry width="50" height="50" relative="1" as="geometry">
            <mxPoint x="1020" y="760" as="sourcePoint" />
            <mxPoint x="1019.9999999999998" y="359.9999999999999" as="targetPoint" />
          </mxGeometry>
        </mxCell>
        <mxCell id="AD1-2I_FPRvKC91VBRbE-281" value="" style="endArrow=none;dashed=1;html=1;strokeWidth=1;rounded=0;labelBackgroundColor=default;strokeColor=default;fontFamily=Helvetica;fontSize=11;fontColor=default;shape=connector;jumpStyle=arc;" parent="1" edge="1">
          <mxGeometry width="50" height="50" relative="1" as="geometry">
            <mxPoint x="490" y="760" as="sourcePoint" />
            <mxPoint x="490" y="470" as="targetPoint" />
          </mxGeometry>
        </mxCell>
        <mxCell id="AD1-2I_FPRvKC91VBRbE-282" value="" style="endArrow=none;dashed=1;html=1;strokeWidth=1;rounded=0;labelBackgroundColor=default;strokeColor=default;fontFamily=Helvetica;fontSize=11;fontColor=default;shape=connector;jumpStyle=arc;" parent="1" edge="1">
          <mxGeometry width="50" height="50" relative="1" as="geometry">
            <mxPoint x="485" y="470" as="sourcePoint" />
            <mxPoint x="355" y="470" as="targetPoint" />
          </mxGeometry>
        </mxCell>
        <mxCell id="AD1-2I_FPRvKC91VBRbE-280" value="" style="endArrow=none;dashed=1;html=1;strokeWidth=1;rounded=0;labelBackgroundColor=default;strokeColor=default;fontFamily=Helvetica;fontSize=11;fontColor=default;shape=connector;jumpStyle=arc;" parent="1" edge="1">
          <mxGeometry width="50" height="50" relative="1" as="geometry">
            <mxPoint x="490" y="760" as="sourcePoint" />
            <mxPoint x="1020" y="760" as="targetPoint" />
          </mxGeometry>
        </mxCell>
        <mxCell id="AD1-2I_FPRvKC91VBRbE-285" value="" style="endArrow=none;dashed=1;html=1;strokeWidth=1;rounded=0;labelBackgroundColor=default;strokeColor=default;fontFamily=Helvetica;fontSize=11;fontColor=default;shape=connector;jumpStyle=arc;" parent="1" edge="1">
          <mxGeometry width="50" height="50" relative="1" as="geometry">
            <mxPoint x="360" y="470" as="sourcePoint" />
            <mxPoint x="360" y="360" as="targetPoint" />
          </mxGeometry>
        </mxCell>
        <mxCell id="AD1-2I_FPRvKC91VBRbE-286" value="Control Section" style="text;html=1;strokeColor=none;fillColor=none;align=center;verticalAlign=middle;whiteSpace=wrap;rounded=0;fontSize=11;fontFamily=Helvetica;fontColor=default;" parent="1" vertex="1">
          <mxGeometry x="570" y="369.37" width="90" height="30" as="geometry" />
        </mxCell>
        <mxCell id="AD1-2I_FPRvKC91VBRbE-287" value="" style="endArrow=none;html=1;rounded=0;labelBackgroundColor=default;strokeColor=default;fontFamily=Helvetica;fontSize=11;fontColor=default;shape=connector;jumpStyle=none;" parent="1" edge="1">
          <mxGeometry width="50" height="50" relative="1" as="geometry">
            <mxPoint x="180" y="180" as="sourcePoint" />
            <mxPoint x="190" y="160" as="targetPoint" />
          </mxGeometry>
        </mxCell>
        <mxCell id="AD1-2I_FPRvKC91VBRbE-289" value="8" style="edgeLabel;html=1;align=center;verticalAlign=middle;resizable=0;points=[];fontSize=11;fontFamily=Helvetica;fontColor=default;" parent="AD1-2I_FPRvKC91VBRbE-287" vertex="1" connectable="0">
          <mxGeometry x="0.8667" y="-1" relative="1" as="geometry">
            <mxPoint x="-10" y="-2" as="offset" />
          </mxGeometry>
        </mxCell>
        <mxCell id="AD1-2I_FPRvKC91VBRbE-290" value="CPU bus" style="text;html=1;strokeColor=none;fillColor=none;align=center;verticalAlign=middle;whiteSpace=wrap;rounded=0;fontSize=11;fontFamily=Helvetica;fontColor=default;" parent="1" vertex="1">
          <mxGeometry x="150" y="130" width="80" height="30" as="geometry" />
        </mxCell>
        <mxCell id="AD1-2I_FPRvKC91VBRbE-294" value="" style="edgeStyle=orthogonalEdgeStyle;shape=connector;rounded=0;orthogonalLoop=1;jettySize=auto;html=1;exitDx=0;exitDy=0;entryDx=0;entryDy=0;labelBackgroundColor=default;strokeColor=default;fontFamily=Helvetica;fontSize=11;fontColor=default;endArrow=none;jumpStyle=arc;exitX=0.621;exitY=0.593;exitPerimeter=0;" parent="1" source="AD1-2I_FPRvKC91VBRbE-252" target="AD1-2I_FPRvKC91VBRbE-293" edge="1">
          <mxGeometry relative="1" as="geometry">
            <mxPoint x="460" y="650" as="sourcePoint" />
            <mxPoint x="200" y="393" as="targetPoint" />
            <Array as="points">
              <mxPoint x="460" y="760" />
              <mxPoint x="180" y="760" />
            </Array>
          </mxGeometry>
        </mxCell>
        <mxCell id="AD1-2I_FPRvKC91VBRbE-293" value="" style="shape=waypoint;sketch=0;fillStyle=solid;size=6;pointerEvents=1;points=[];fillColor=none;resizable=0;rotatable=0;perimeter=centerPerimeter;snapToPoint=1;fontFamily=Helvetica;fontSize=11;fontColor=default;" parent="1" vertex="1">
          <mxGeometry x="170" y="750" width="20" height="20" as="geometry" />
        </mxCell>
        <mxCell id="AD1-2I_FPRvKC91VBRbE-295" value="" style="endArrow=none;html=1;rounded=0;labelBackgroundColor=default;strokeColor=default;fontFamily=Helvetica;fontSize=11;fontColor=default;shape=connector;jumpStyle=arc;exitDx=0;exitDy=0;exitPerimeter=0;entryX=0.602;entryY=0.417;entryDx=0;entryDy=0;entryPerimeter=0;edgeStyle=orthogonalEdgeStyle;" parent="1" source="pn1axEp1Zz7bbhyXCy7V-21" target="AD1-2I_FPRvKC91VBRbE-293" edge="1">
          <mxGeometry width="50" height="50" relative="1" as="geometry">
            <mxPoint x="270" y="500" as="sourcePoint" />
            <mxPoint x="320" y="450" as="targetPoint" />
            <Array as="points">
              <mxPoint x="160" y="760" />
            </Array>
          </mxGeometry>
        </mxCell>
        <mxCell id="AD1-2I_FPRvKC91VBRbE-298" value="" style="endArrow=none;html=1;rounded=0;labelBackgroundColor=default;strokeColor=default;fontFamily=Helvetica;fontSize=11;fontColor=default;shape=connector;jumpStyle=none;" parent="1" edge="1">
          <mxGeometry width="50" height="50" relative="1" as="geometry">
            <mxPoint x="1330" y="419.37" as="sourcePoint" />
            <mxPoint x="1340" y="399.37" as="targetPoint" />
          </mxGeometry>
        </mxCell>
        <mxCell id="AD1-2I_FPRvKC91VBRbE-299" value="8" style="edgeLabel;html=1;align=center;verticalAlign=middle;resizable=0;points=[];fontSize=11;fontFamily=Helvetica;fontColor=default;" parent="AD1-2I_FPRvKC91VBRbE-298" vertex="1" connectable="0">
          <mxGeometry x="0.8667" y="-1" relative="1" as="geometry">
            <mxPoint x="-10" y="-2" as="offset" />
          </mxGeometry>
        </mxCell>
        <mxCell id="AD1-2I_FPRvKC91VBRbE-304" value="Other Control Logic" style="rounded=0;whiteSpace=wrap;html=1;fontFamily=Helvetica;fontSize=11;fontColor=default;" parent="1" vertex="1">
          <mxGeometry x="700" y="560" width="300" height="183.75" as="geometry" />
        </mxCell>
        <mxCell id="pn1axEp1Zz7bbhyXCy7V-5" style="edgeStyle=orthogonalEdgeStyle;shape=connector;rounded=0;jumpStyle=arc;orthogonalLoop=1;jettySize=auto;html=1;exitX=0.75;exitY=1;exitDx=0;exitDy=0;entryX=1;entryY=0.5;entryDx=0;entryDy=0;labelBackgroundColor=default;strokeColor=default;fontFamily=Helvetica;fontSize=11;fontColor=default;endArrow=none;" parent="1" source="pn1axEp1Zz7bbhyXCy7V-1" target="pn1axEp1Zz7bbhyXCy7V-4" edge="1">
          <mxGeometry relative="1" as="geometry" />
        </mxCell>
        <mxCell id="pn1axEp1Zz7bbhyXCy7V-6" style="edgeStyle=orthogonalEdgeStyle;shape=connector;rounded=0;jumpStyle=arc;orthogonalLoop=1;jettySize=auto;html=1;exitX=0.25;exitY=1;exitDx=0;exitDy=0;entryX=1;entryY=0.5;entryDx=0;entryDy=0;labelBackgroundColor=default;strokeColor=default;fontFamily=Helvetica;fontSize=11;fontColor=default;endArrow=none;" parent="1" source="pn1axEp1Zz7bbhyXCy7V-1" target="AD1-2I_FPRvKC91VBRbE-249" edge="1">
          <mxGeometry relative="1" as="geometry" />
        </mxCell>
        <mxCell id="pn1axEp1Zz7bbhyXCy7V-8" style="edgeStyle=orthogonalEdgeStyle;shape=connector;rounded=0;jumpStyle=arc;orthogonalLoop=1;jettySize=auto;html=1;exitX=0.5;exitY=0;exitDx=0;exitDy=0;entryX=0.25;entryY=1;entryDx=0;entryDy=0;labelBackgroundColor=default;strokeColor=default;fontFamily=Helvetica;fontSize=11;fontColor=default;endArrow=none;" parent="1" source="pn1axEp1Zz7bbhyXCy7V-1" target="AD1-2I_FPRvKC91VBRbE-246" edge="1">
          <mxGeometry relative="1" as="geometry">
            <Array as="points">
              <mxPoint x="580" y="565" />
              <mxPoint x="580" y="589" />
            </Array>
          </mxGeometry>
        </mxCell>
        <mxCell id="pn1axEp1Zz7bbhyXCy7V-1" value="" style="shape=trapezoid;perimeter=trapezoidPerimeter;whiteSpace=wrap;html=1;fixedSize=1;fontFamily=Helvetica;fontSize=11;fontColor=default;rotation=90;size=10.000000000000114;" parent="1" vertex="1">
          <mxGeometry x="535" y="556.67" width="50" height="16.67" as="geometry" />
        </mxCell>
        <mxCell id="pn1axEp1Zz7bbhyXCy7V-4" value="2" style="text;html=1;strokeColor=none;fillColor=none;align=center;verticalAlign=middle;whiteSpace=wrap;rounded=0;fontSize=11;fontFamily=Helvetica;fontColor=default;" parent="1" vertex="1">
          <mxGeometry x="510" y="567.5" width="20" height="20" as="geometry" />
        </mxCell>
        <mxCell id="pn1axEp1Zz7bbhyXCy7V-12" style="edgeStyle=orthogonalEdgeStyle;shape=connector;rounded=0;jumpStyle=arc;orthogonalLoop=1;jettySize=auto;html=1;exitDx=0;exitDy=0;entryX=0;entryY=0.5;entryDx=0;entryDy=0;labelBackgroundColor=default;strokeColor=default;fontFamily=Helvetica;fontSize=11;fontColor=default;endArrow=none;" parent="1" source="pn1axEp1Zz7bbhyXCy7V-28" target="pn1axEp1Zz7bbhyXCy7V-1" edge="1">
          <mxGeometry relative="1" as="geometry" />
        </mxCell>
        <mxCell id="pn1axEp1Zz7bbhyXCy7V-10" value="&lt;font style=&quot;font-size: 8px;&quot;&gt;jumpi_en&lt;/font&gt;" style="text;html=1;strokeColor=none;fillColor=none;align=center;verticalAlign=middle;whiteSpace=wrap;rounded=0;fontSize=8;fontFamily=Helvetica;fontColor=default;" parent="1" vertex="1">
          <mxGeometry x="542.5" y="506.25" width="35" height="13.75" as="geometry" />
        </mxCell>
        <mxCell id="pn1axEp1Zz7bbhyXCy7V-37" style="edgeStyle=orthogonalEdgeStyle;shape=connector;rounded=0;jumpStyle=arc;orthogonalLoop=1;jettySize=auto;html=1;exitX=0;exitY=0.75;exitDx=0;exitDy=0;entryX=0.175;entryY=0.25;entryDx=0;entryDy=0;entryPerimeter=0;labelBackgroundColor=default;strokeColor=default;fontFamily=Helvetica;fontSize=11;fontColor=default;endArrow=none;" parent="1" source="pn1axEp1Zz7bbhyXCy7V-16" target="pn1axEp1Zz7bbhyXCy7V-35" edge="1">
          <mxGeometry relative="1" as="geometry">
            <Array as="points">
              <mxPoint x="670" y="578" />
              <mxPoint x="670" y="570" />
              <mxPoint x="650" y="570" />
              <mxPoint x="650" y="555" />
            </Array>
          </mxGeometry>
        </mxCell>
        <mxCell id="pn1axEp1Zz7bbhyXCy7V-16" value="&lt;span style=&quot;font-size: 8px;&quot;&gt;branch_taken&lt;/span&gt;" style="text;html=1;strokeColor=none;fillColor=none;align=left;verticalAlign=middle;whiteSpace=wrap;rounded=0;fontSize=8;fontFamily=Helvetica;fontColor=default;" parent="1" vertex="1">
          <mxGeometry x="700" y="570.63" width="60" height="13.75" as="geometry" />
        </mxCell>
        <mxCell id="pn1axEp1Zz7bbhyXCy7V-24" style="edgeStyle=orthogonalEdgeStyle;shape=connector;rounded=0;jumpStyle=arc;orthogonalLoop=1;jettySize=auto;html=1;exitX=0.25;exitY=1;exitDx=0;exitDy=0;entryX=1;entryY=0.25;entryDx=0;entryDy=0;labelBackgroundColor=default;strokeColor=default;fontFamily=Helvetica;fontSize=11;fontColor=default;endArrow=none;" parent="1" source="pn1axEp1Zz7bbhyXCy7V-18" target="AD1-2I_FPRvKC91VBRbE-245" edge="1">
          <mxGeometry relative="1" as="geometry" />
        </mxCell>
        <mxCell id="pn1axEp1Zz7bbhyXCy7V-18" value="" style="shape=trapezoid;perimeter=trapezoidPerimeter;whiteSpace=wrap;html=1;fixedSize=1;fontFamily=Helvetica;fontSize=11;fontColor=default;rotation=-90;size=10.000000000000114;" parent="1" vertex="1">
          <mxGeometry x="563.33" y="720" width="40" height="13.34" as="geometry" />
        </mxCell>
        <mxCell id="pn1axEp1Zz7bbhyXCy7V-20" style="edgeStyle=orthogonalEdgeStyle;shape=connector;rounded=0;jumpStyle=arc;orthogonalLoop=1;jettySize=auto;html=1;exitX=0.5;exitY=1;exitDx=0;exitDy=0;entryX=1;entryY=0.5;entryDx=0;entryDy=0;labelBackgroundColor=default;strokeColor=default;fontFamily=Helvetica;fontSize=11;fontColor=default;endArrow=none;" parent="1" source="pn1axEp1Zz7bbhyXCy7V-19" target="pn1axEp1Zz7bbhyXCy7V-18" edge="1">
          <mxGeometry relative="1" as="geometry" />
        </mxCell>
        <mxCell id="pn1axEp1Zz7bbhyXCy7V-19" value="&lt;font style=&quot;font-size: 8px;&quot;&gt;jumpadr_en&lt;/font&gt;" style="text;html=1;strokeColor=none;fillColor=none;align=center;verticalAlign=middle;whiteSpace=wrap;rounded=0;fontSize=8;fontFamily=Helvetica;fontColor=default;" parent="1" vertex="1">
          <mxGeometry x="565.83" y="680" width="35" height="13.75" as="geometry" />
        </mxCell>
        <mxCell id="pn1axEp1Zz7bbhyXCy7V-22" value="" style="endArrow=none;html=1;rounded=0;labelBackgroundColor=default;strokeColor=default;fontFamily=Helvetica;fontSize=11;fontColor=default;shape=connector;jumpStyle=arc;exitDx=0;exitDy=0;exitPerimeter=0;entryDx=0;entryDy=0;entryPerimeter=0;edgeStyle=orthogonalEdgeStyle;" parent="1" source="pn1axEp1Zz7bbhyXCy7V-129" target="pn1axEp1Zz7bbhyXCy7V-21" edge="1">
          <mxGeometry width="50" height="50" relative="1" as="geometry">
            <mxPoint x="160" y="409.37" as="sourcePoint" />
            <mxPoint x="180" y="760" as="targetPoint" />
            <Array as="points" />
          </mxGeometry>
        </mxCell>
        <mxCell id="pn1axEp1Zz7bbhyXCy7V-21" value="" style="shape=waypoint;sketch=0;fillStyle=solid;size=6;pointerEvents=1;points=[];fillColor=none;resizable=0;rotatable=0;perimeter=centerPerimeter;snapToPoint=1;fontFamily=Helvetica;fontSize=11;fontColor=default;" parent="1" vertex="1">
          <mxGeometry x="150" y="750" width="20" height="20" as="geometry" />
        </mxCell>
        <mxCell id="pn1axEp1Zz7bbhyXCy7V-30" value="" style="edgeStyle=orthogonalEdgeStyle;shape=connector;rounded=0;jumpStyle=arc;orthogonalLoop=1;jettySize=auto;html=1;exitX=0.5;exitY=1;exitDx=0;exitDy=0;entryDx=0;entryDy=0;labelBackgroundColor=default;strokeColor=default;fontFamily=Helvetica;fontSize=11;fontColor=default;endArrow=none;" parent="1" source="pn1axEp1Zz7bbhyXCy7V-10" target="pn1axEp1Zz7bbhyXCy7V-28" edge="1">
          <mxGeometry relative="1" as="geometry">
            <mxPoint x="560" y="508" as="sourcePoint" />
            <mxPoint x="560" y="545" as="targetPoint" />
          </mxGeometry>
        </mxCell>
        <mxCell id="pn1axEp1Zz7bbhyXCy7V-28" value="" style="shape=waypoint;sketch=0;fillStyle=solid;size=6;pointerEvents=1;points=[];fillColor=none;resizable=0;rotatable=0;perimeter=centerPerimeter;snapToPoint=1;fontFamily=Helvetica;fontSize=11;fontColor=default;" parent="1" vertex="1">
          <mxGeometry x="550" y="520" width="20" height="20" as="geometry" />
        </mxCell>
        <mxCell id="pn1axEp1Zz7bbhyXCy7V-36" style="edgeStyle=orthogonalEdgeStyle;shape=connector;rounded=0;jumpStyle=arc;orthogonalLoop=1;jettySize=auto;html=1;exitX=0.175;exitY=0.75;exitDx=0;exitDy=0;exitPerimeter=0;entryX=0.65;entryY=0.55;entryDx=0;entryDy=0;entryPerimeter=0;labelBackgroundColor=default;strokeColor=default;fontFamily=Helvetica;fontSize=11;fontColor=default;endArrow=none;" parent="1" source="pn1axEp1Zz7bbhyXCy7V-35" target="pn1axEp1Zz7bbhyXCy7V-28" edge="1">
          <mxGeometry relative="1" as="geometry">
            <Array as="points">
              <mxPoint x="650" y="545" />
              <mxPoint x="650" y="530" />
            </Array>
          </mxGeometry>
        </mxCell>
        <mxCell id="pn1axEp1Zz7bbhyXCy7V-38" style="edgeStyle=orthogonalEdgeStyle;shape=connector;rounded=0;jumpStyle=arc;orthogonalLoop=1;jettySize=auto;html=1;exitX=1;exitY=0.5;exitDx=0;exitDy=0;exitPerimeter=0;entryX=0;entryY=0.5;entryDx=0;entryDy=0;labelBackgroundColor=default;strokeColor=default;fontFamily=Helvetica;fontSize=11;fontColor=default;endArrow=none;" parent="1" source="pn1axEp1Zz7bbhyXCy7V-35" target="AD1-2I_FPRvKC91VBRbE-246" edge="1">
          <mxGeometry relative="1" as="geometry" />
        </mxCell>
        <mxCell id="pn1axEp1Zz7bbhyXCy7V-35" value="" style="shape=xor;whiteSpace=wrap;html=1;fontFamily=Helvetica;fontSize=11;fontColor=default;rotation=-180;" parent="1" vertex="1">
          <mxGeometry x="625" y="540" width="15" height="20" as="geometry" />
        </mxCell>
        <mxCell id="pn1axEp1Zz7bbhyXCy7V-39" value="reg_write_en" style="text;html=1;strokeColor=none;fillColor=none;align=left;verticalAlign=middle;whiteSpace=wrap;rounded=0;fontSize=8;fontFamily=Helvetica;fontColor=default;rotation=90;" parent="1" vertex="1">
          <mxGeometry x="680" y="403.75" width="60" height="12.5" as="geometry" />
        </mxCell>
        <mxCell id="pn1axEp1Zz7bbhyXCy7V-40" value="reg_read_en" style="text;html=1;strokeColor=none;fillColor=none;align=left;verticalAlign=middle;whiteSpace=wrap;rounded=0;fontSize=8;fontFamily=Helvetica;fontColor=default;rotation=90;" parent="1" vertex="1">
          <mxGeometry x="700" y="406.87" width="60" height="8.13" as="geometry" />
        </mxCell>
        <mxCell id="pn1axEp1Zz7bbhyXCy7V-44" value="" style="shape=waypoint;sketch=0;fillStyle=solid;size=6;pointerEvents=1;points=[];fillColor=none;resizable=0;rotatable=0;perimeter=centerPerimeter;snapToPoint=1;fontFamily=Helvetica;fontSize=11;fontColor=default;" parent="1" vertex="1">
          <mxGeometry x="700" y="320" width="20" height="20" as="geometry" />
        </mxCell>
        <mxCell id="pn1axEp1Zz7bbhyXCy7V-49" style="edgeStyle=orthogonalEdgeStyle;shape=connector;rounded=0;jumpStyle=arc;orthogonalLoop=1;jettySize=auto;html=1;exitX=0;exitY=0.75;exitDx=0;exitDy=0;entryX=0.136;entryY=0.546;entryDx=0;entryDy=0;entryPerimeter=0;labelBackgroundColor=default;strokeColor=default;fontFamily=Helvetica;fontSize=11;fontColor=default;endArrow=none;" parent="1" source="AD1-2I_FPRvKC91VBRbE-95" target="pn1axEp1Zz7bbhyXCy7V-44" edge="1">
          <mxGeometry relative="1" as="geometry">
            <Array as="points">
              <mxPoint x="200" y="277" />
              <mxPoint x="200" y="330" />
              <mxPoint x="710" y="330" />
            </Array>
          </mxGeometry>
        </mxCell>
        <mxCell id="pn1axEp1Zz7bbhyXCy7V-43" value="" style="shape=waypoint;sketch=0;fillStyle=solid;size=6;pointerEvents=1;points=[];fillColor=none;resizable=0;rotatable=0;perimeter=centerPerimeter;snapToPoint=1;fontFamily=Helvetica;fontSize=11;fontColor=default;" parent="1" vertex="1">
          <mxGeometry x="720" y="330" width="20" height="20" as="geometry" />
        </mxCell>
        <mxCell id="pn1axEp1Zz7bbhyXCy7V-53" style="edgeStyle=orthogonalEdgeStyle;shape=connector;rounded=0;jumpStyle=arc;orthogonalLoop=1;jettySize=auto;html=1;exitDx=0;exitDy=0;entryX=0.374;entryY=0.755;entryDx=0;entryDy=0;entryPerimeter=0;labelBackgroundColor=default;strokeColor=default;fontFamily=Helvetica;fontSize=11;fontColor=default;endArrow=none;" parent="1" source="pn1axEp1Zz7bbhyXCy7V-80" target="pn1axEp1Zz7bbhyXCy7V-43" edge="1">
          <mxGeometry relative="1" as="geometry">
            <Array as="points" />
          </mxGeometry>
        </mxCell>
        <mxCell id="pn1axEp1Zz7bbhyXCy7V-54" value="" style="shape=waypoint;sketch=0;fillStyle=solid;size=6;pointerEvents=1;points=[];fillColor=none;resizable=0;rotatable=0;perimeter=centerPerimeter;snapToPoint=1;fontFamily=Helvetica;fontSize=11;fontColor=default;" parent="1" vertex="1">
          <mxGeometry x="310" y="320" width="20" height="20" as="geometry" />
        </mxCell>
        <mxCell id="pn1axEp1Zz7bbhyXCy7V-55" value="" style="shape=waypoint;sketch=0;fillStyle=solid;size=6;pointerEvents=1;points=[];fillColor=none;resizable=0;rotatable=0;perimeter=centerPerimeter;snapToPoint=1;fontFamily=Helvetica;fontSize=11;fontColor=default;" parent="1" vertex="1">
          <mxGeometry x="320" y="330" width="20" height="20" as="geometry" />
        </mxCell>
        <mxCell id="pn1axEp1Zz7bbhyXCy7V-61" style="edgeStyle=orthogonalEdgeStyle;shape=connector;rounded=0;jumpStyle=arc;orthogonalLoop=1;jettySize=auto;html=1;exitX=0;exitY=0.75;exitDx=0;exitDy=0;entryX=0.362;entryY=0.507;entryDx=0;entryDy=0;entryPerimeter=0;labelBackgroundColor=default;strokeColor=default;fontFamily=Helvetica;fontSize=11;fontColor=default;endArrow=none;" parent="1" source="AD1-2I_FPRvKC91VBRbE-97" target="pn1axEp1Zz7bbhyXCy7V-55" edge="1">
          <mxGeometry relative="1" as="geometry">
            <Array as="points">
              <mxPoint x="210" y="287" />
              <mxPoint x="210" y="340" />
            </Array>
          </mxGeometry>
        </mxCell>
        <mxCell id="pn1axEp1Zz7bbhyXCy7V-62" style="edgeStyle=orthogonalEdgeStyle;shape=connector;rounded=0;jumpStyle=arc;orthogonalLoop=1;jettySize=auto;html=1;exitX=0;exitY=0.75;exitDx=0;exitDy=0;entryX=0.494;entryY=0.363;entryDx=0;entryDy=0;entryPerimeter=0;labelBackgroundColor=default;strokeColor=default;fontFamily=Helvetica;fontSize=11;fontColor=default;endArrow=none;" parent="1" source="AD1-2I_FPRvKC91VBRbE-125" target="pn1axEp1Zz7bbhyXCy7V-54" edge="1">
          <mxGeometry relative="1" as="geometry" />
        </mxCell>
        <mxCell id="pn1axEp1Zz7bbhyXCy7V-63" style="edgeStyle=orthogonalEdgeStyle;shape=connector;rounded=0;jumpStyle=arc;orthogonalLoop=1;jettySize=auto;html=1;exitX=0;exitY=0.75;exitDx=0;exitDy=0;entryX=0.638;entryY=0.461;entryDx=0;entryDy=0;entryPerimeter=0;labelBackgroundColor=default;strokeColor=default;fontFamily=Helvetica;fontSize=11;fontColor=default;endArrow=none;" parent="1" source="AD1-2I_FPRvKC91VBRbE-127" target="pn1axEp1Zz7bbhyXCy7V-55" edge="1">
          <mxGeometry relative="1" as="geometry">
            <Array as="points">
              <mxPoint x="330" y="287" />
            </Array>
          </mxGeometry>
        </mxCell>
        <mxCell id="pn1axEp1Zz7bbhyXCy7V-64" value="" style="endArrow=none;html=1;rounded=0;labelBackgroundColor=default;strokeColor=default;fontFamily=Helvetica;fontSize=11;fontColor=default;shape=connector;jumpStyle=none;" parent="1" edge="1">
          <mxGeometry width="50" height="50" relative="1" as="geometry">
            <mxPoint x="725.9399999999999" y="372.98" as="sourcePoint" />
            <mxPoint x="734.06" y="369.37" as="targetPoint" />
          </mxGeometry>
        </mxCell>
        <mxCell id="pn1axEp1Zz7bbhyXCy7V-65" value="&lt;font style=&quot;font-size: 7px;&quot;&gt;8&lt;/font&gt;" style="edgeLabel;html=1;align=center;verticalAlign=middle;resizable=0;points=[];fontSize=11;fontFamily=Helvetica;fontColor=default;" parent="pn1axEp1Zz7bbhyXCy7V-64" vertex="1" connectable="0">
          <mxGeometry x="0.8667" y="-1" relative="1" as="geometry">
            <mxPoint x="6" y="-4" as="offset" />
          </mxGeometry>
        </mxCell>
        <mxCell id="pn1axEp1Zz7bbhyXCy7V-67" value="" style="endArrow=none;html=1;rounded=0;labelBackgroundColor=default;strokeColor=default;fontFamily=Helvetica;fontSize=11;fontColor=default;shape=connector;jumpStyle=none;" parent="1" edge="1">
          <mxGeometry width="50" height="50" relative="1" as="geometry">
            <mxPoint x="706.04" y="373.31" as="sourcePoint" />
            <mxPoint x="714.16" y="369.7" as="targetPoint" />
          </mxGeometry>
        </mxCell>
        <mxCell id="pn1axEp1Zz7bbhyXCy7V-68" value="&lt;font style=&quot;font-size: 7px;&quot;&gt;8&lt;/font&gt;" style="edgeLabel;html=1;align=center;verticalAlign=middle;resizable=0;points=[];fontSize=11;fontFamily=Helvetica;fontColor=default;" parent="pn1axEp1Zz7bbhyXCy7V-67" vertex="1" connectable="0">
          <mxGeometry x="0.8667" y="-1" relative="1" as="geometry">
            <mxPoint x="6" y="-4" as="offset" />
          </mxGeometry>
        </mxCell>
        <mxCell id="pn1axEp1Zz7bbhyXCy7V-70" value="" style="shape=waypoint;sketch=0;fillStyle=solid;size=6;pointerEvents=1;points=[];fillColor=none;resizable=0;rotatable=0;perimeter=centerPerimeter;snapToPoint=1;fontFamily=Helvetica;fontSize=11;fontColor=default;" parent="1" vertex="1">
          <mxGeometry x="430" y="320" width="20" height="20" as="geometry" />
        </mxCell>
        <mxCell id="pn1axEp1Zz7bbhyXCy7V-71" value="" style="edgeStyle=orthogonalEdgeStyle;shape=connector;rounded=0;jumpStyle=arc;orthogonalLoop=1;jettySize=auto;html=1;exitDx=0;exitDy=0;entryDx=0;entryDy=0;entryPerimeter=0;labelBackgroundColor=default;strokeColor=default;fontFamily=Helvetica;fontSize=11;fontColor=default;endArrow=none;" parent="1" source="pn1axEp1Zz7bbhyXCy7V-55" target="pn1axEp1Zz7bbhyXCy7V-69" edge="1">
          <mxGeometry relative="1" as="geometry">
            <mxPoint x="330" y="340" as="sourcePoint" />
            <mxPoint x="730" y="340" as="targetPoint" />
            <Array as="points" />
          </mxGeometry>
        </mxCell>
        <mxCell id="pn1axEp1Zz7bbhyXCy7V-69" value="" style="shape=waypoint;sketch=0;fillStyle=solid;size=6;pointerEvents=1;points=[];fillColor=none;resizable=0;rotatable=0;perimeter=centerPerimeter;snapToPoint=1;fontFamily=Helvetica;fontSize=11;fontColor=default;" parent="1" vertex="1">
          <mxGeometry x="440" y="330" width="20" height="20" as="geometry" />
        </mxCell>
        <mxCell id="pn1axEp1Zz7bbhyXCy7V-72" style="edgeStyle=orthogonalEdgeStyle;shape=connector;rounded=0;jumpStyle=arc;orthogonalLoop=1;jettySize=auto;html=1;exitX=0;exitY=0.75;exitDx=0;exitDy=0;entryX=0.542;entryY=0.303;entryDx=0;entryDy=0;entryPerimeter=0;labelBackgroundColor=default;strokeColor=default;fontFamily=Helvetica;fontSize=11;fontColor=default;endArrow=none;" parent="1" source="AD1-2I_FPRvKC91VBRbE-133" target="pn1axEp1Zz7bbhyXCy7V-70" edge="1">
          <mxGeometry relative="1" as="geometry" />
        </mxCell>
        <mxCell id="pn1axEp1Zz7bbhyXCy7V-73" style="edgeStyle=orthogonalEdgeStyle;shape=connector;rounded=0;jumpStyle=arc;orthogonalLoop=1;jettySize=auto;html=1;exitX=0;exitY=0.75;exitDx=0;exitDy=0;entryX=0.644;entryY=0.415;entryDx=0;entryDy=0;entryPerimeter=0;labelBackgroundColor=default;strokeColor=default;fontFamily=Helvetica;fontSize=11;fontColor=default;endArrow=none;" parent="1" source="AD1-2I_FPRvKC91VBRbE-135" target="pn1axEp1Zz7bbhyXCy7V-69" edge="1">
          <mxGeometry relative="1" as="geometry">
            <Array as="points">
              <mxPoint x="450" y="287" />
            </Array>
          </mxGeometry>
        </mxCell>
        <mxCell id="pn1axEp1Zz7bbhyXCy7V-74" value="" style="shape=waypoint;sketch=0;fillStyle=solid;size=6;pointerEvents=1;points=[];fillColor=none;resizable=0;rotatable=0;perimeter=centerPerimeter;snapToPoint=1;fontFamily=Helvetica;fontSize=11;fontColor=default;" parent="1" vertex="1">
          <mxGeometry x="550" y="320" width="20" height="20" as="geometry" />
        </mxCell>
        <mxCell id="pn1axEp1Zz7bbhyXCy7V-77" value="" style="edgeStyle=orthogonalEdgeStyle;shape=connector;rounded=0;jumpStyle=arc;orthogonalLoop=1;jettySize=auto;html=1;exitDx=0;exitDy=0;entryDx=0;entryDy=0;entryPerimeter=0;labelBackgroundColor=default;strokeColor=default;fontFamily=Helvetica;fontSize=11;fontColor=default;endArrow=none;" parent="1" source="pn1axEp1Zz7bbhyXCy7V-69" target="pn1axEp1Zz7bbhyXCy7V-75" edge="1">
          <mxGeometry relative="1" as="geometry">
            <mxPoint x="450" y="340" as="sourcePoint" />
            <mxPoint x="730" y="340" as="targetPoint" />
            <Array as="points" />
          </mxGeometry>
        </mxCell>
        <mxCell id="pn1axEp1Zz7bbhyXCy7V-75" value="" style="shape=waypoint;sketch=0;fillStyle=solid;size=6;pointerEvents=1;points=[];fillColor=none;resizable=0;rotatable=0;perimeter=centerPerimeter;snapToPoint=1;fontFamily=Helvetica;fontSize=11;fontColor=default;" parent="1" vertex="1">
          <mxGeometry x="560" y="330" width="20" height="20" as="geometry" />
        </mxCell>
        <mxCell id="pn1axEp1Zz7bbhyXCy7V-78" style="edgeStyle=orthogonalEdgeStyle;shape=connector;rounded=0;jumpStyle=arc;orthogonalLoop=1;jettySize=auto;html=1;exitX=0;exitY=0.75;exitDx=0;exitDy=0;entryX=0.577;entryY=0.339;entryDx=0;entryDy=0;entryPerimeter=0;labelBackgroundColor=default;strokeColor=default;fontFamily=Helvetica;fontSize=11;fontColor=default;endArrow=none;" parent="1" source="AD1-2I_FPRvKC91VBRbE-141" target="pn1axEp1Zz7bbhyXCy7V-74" edge="1">
          <mxGeometry relative="1" as="geometry" />
        </mxCell>
        <mxCell id="pn1axEp1Zz7bbhyXCy7V-79" style="edgeStyle=orthogonalEdgeStyle;shape=connector;rounded=0;jumpStyle=arc;orthogonalLoop=1;jettySize=auto;html=1;exitX=0;exitY=0.75;exitDx=0;exitDy=0;labelBackgroundColor=default;strokeColor=default;fontFamily=Helvetica;fontSize=11;fontColor=default;endArrow=none;" parent="1" source="AD1-2I_FPRvKC91VBRbE-143" target="pn1axEp1Zz7bbhyXCy7V-75" edge="1">
          <mxGeometry relative="1" as="geometry">
            <Array as="points">
              <mxPoint x="570" y="287" />
            </Array>
          </mxGeometry>
        </mxCell>
        <mxCell id="pn1axEp1Zz7bbhyXCy7V-81" value="" style="shape=waypoint;sketch=0;fillStyle=solid;size=6;pointerEvents=1;points=[];fillColor=none;resizable=0;rotatable=0;perimeter=centerPerimeter;snapToPoint=1;fontFamily=Helvetica;fontSize=11;fontColor=default;" parent="1" vertex="1">
          <mxGeometry x="670" y="320" width="20" height="20" as="geometry" />
        </mxCell>
        <mxCell id="pn1axEp1Zz7bbhyXCy7V-82" value="" style="edgeStyle=orthogonalEdgeStyle;shape=connector;rounded=0;jumpStyle=arc;orthogonalLoop=1;jettySize=auto;html=1;exitDx=0;exitDy=0;entryDx=0;entryDy=0;entryPerimeter=0;labelBackgroundColor=default;strokeColor=default;fontFamily=Helvetica;fontSize=11;fontColor=default;endArrow=none;" parent="1" source="pn1axEp1Zz7bbhyXCy7V-75" target="pn1axEp1Zz7bbhyXCy7V-80" edge="1">
          <mxGeometry relative="1" as="geometry">
            <mxPoint x="570" y="340" as="sourcePoint" />
            <mxPoint x="730" y="340" as="targetPoint" />
            <Array as="points">
              <mxPoint x="330" y="340" />
            </Array>
          </mxGeometry>
        </mxCell>
        <mxCell id="pn1axEp1Zz7bbhyXCy7V-80" value="" style="shape=waypoint;sketch=0;fillStyle=solid;size=6;pointerEvents=1;points=[];fillColor=none;resizable=0;rotatable=0;perimeter=centerPerimeter;snapToPoint=1;fontFamily=Helvetica;fontSize=11;fontColor=default;" parent="1" vertex="1">
          <mxGeometry x="680" y="330" width="20" height="20" as="geometry" />
        </mxCell>
        <mxCell id="pn1axEp1Zz7bbhyXCy7V-84" style="edgeStyle=orthogonalEdgeStyle;shape=connector;rounded=0;jumpStyle=arc;orthogonalLoop=1;jettySize=auto;html=1;exitX=0;exitY=0.75;exitDx=0;exitDy=0;labelBackgroundColor=default;strokeColor=default;fontFamily=Helvetica;fontSize=11;fontColor=default;endArrow=none;" parent="1" source="AD1-2I_FPRvKC91VBRbE-151" target="pn1axEp1Zz7bbhyXCy7V-80" edge="1">
          <mxGeometry relative="1" as="geometry">
            <Array as="points">
              <mxPoint x="690" y="287" />
            </Array>
          </mxGeometry>
        </mxCell>
        <mxCell id="pn1axEp1Zz7bbhyXCy7V-85" style="edgeStyle=orthogonalEdgeStyle;shape=connector;rounded=0;jumpStyle=arc;orthogonalLoop=1;jettySize=auto;html=1;exitX=0;exitY=0.75;exitDx=0;exitDy=0;entryX=0.598;entryY=0.145;entryDx=0;entryDy=0;entryPerimeter=0;labelBackgroundColor=default;strokeColor=default;fontFamily=Helvetica;fontSize=11;fontColor=default;endArrow=none;" parent="1" source="AD1-2I_FPRvKC91VBRbE-149" target="pn1axEp1Zz7bbhyXCy7V-81" edge="1">
          <mxGeometry relative="1" as="geometry" />
        </mxCell>
        <mxCell id="pn1axEp1Zz7bbhyXCy7V-86" style="edgeStyle=orthogonalEdgeStyle;shape=connector;rounded=0;jumpStyle=arc;orthogonalLoop=1;jettySize=auto;html=1;exitDx=0;exitDy=0;entryX=0.68;entryY=0.73;entryDx=0;entryDy=0;entryPerimeter=0;labelBackgroundColor=default;strokeColor=default;fontFamily=Helvetica;fontSize=11;fontColor=default;endArrow=none;" parent="1" source="pn1axEp1Zz7bbhyXCy7V-94" target="pn1axEp1Zz7bbhyXCy7V-43" edge="1">
          <mxGeometry relative="1" as="geometry">
            <Array as="points" />
          </mxGeometry>
        </mxCell>
        <mxCell id="pn1axEp1Zz7bbhyXCy7V-87" style="edgeStyle=orthogonalEdgeStyle;shape=connector;rounded=0;jumpStyle=arc;orthogonalLoop=1;jettySize=auto;html=1;exitDx=0;exitDy=0;entryX=0.64;entryY=0.54;entryDx=0;entryDy=0;entryPerimeter=0;labelBackgroundColor=default;strokeColor=default;fontFamily=Helvetica;fontSize=11;fontColor=default;endArrow=none;" parent="1" source="pn1axEp1Zz7bbhyXCy7V-95" target="pn1axEp1Zz7bbhyXCy7V-44" edge="1">
          <mxGeometry relative="1" as="geometry">
            <Array as="points" />
          </mxGeometry>
        </mxCell>
        <mxCell id="pn1axEp1Zz7bbhyXCy7V-90" value="" style="edgeStyle=orthogonalEdgeStyle;shape=connector;rounded=0;jumpStyle=arc;orthogonalLoop=1;jettySize=auto;html=1;exitX=0;exitY=0.75;exitDx=0;exitDy=0;entryDx=0;entryDy=0;entryPerimeter=0;labelBackgroundColor=default;strokeColor=default;fontFamily=Helvetica;fontSize=11;fontColor=default;endArrow=none;" parent="1" source="AD1-2I_FPRvKC91VBRbE-174" target="pn1axEp1Zz7bbhyXCy7V-89" edge="1">
          <mxGeometry relative="1" as="geometry">
            <mxPoint x="1060" y="278" as="sourcePoint" />
            <mxPoint x="710" y="331" as="targetPoint" />
            <Array as="points">
              <mxPoint x="1030" y="278" />
              <mxPoint x="1030" y="331" />
            </Array>
          </mxGeometry>
        </mxCell>
        <mxCell id="pn1axEp1Zz7bbhyXCy7V-89" value="" style="shape=waypoint;sketch=0;fillStyle=solid;size=6;pointerEvents=1;points=[];fillColor=none;resizable=0;rotatable=0;perimeter=centerPerimeter;snapToPoint=1;fontFamily=Helvetica;fontSize=11;fontColor=default;" parent="1" vertex="1">
          <mxGeometry x="910" y="320" width="20" height="20" as="geometry" />
        </mxCell>
        <mxCell id="pn1axEp1Zz7bbhyXCy7V-91" value="" style="edgeStyle=orthogonalEdgeStyle;shape=connector;rounded=0;jumpStyle=arc;orthogonalLoop=1;jettySize=auto;html=1;exitX=0;exitY=0.75;exitDx=0;exitDy=0;entryDx=0;entryDy=0;entryPerimeter=0;labelBackgroundColor=default;strokeColor=default;fontFamily=Helvetica;fontSize=11;fontColor=default;endArrow=none;" parent="1" source="AD1-2I_FPRvKC91VBRbE-176" target="pn1axEp1Zz7bbhyXCy7V-88" edge="1">
          <mxGeometry relative="1" as="geometry">
            <mxPoint x="1060" y="288" as="sourcePoint" />
            <mxPoint x="730" y="340" as="targetPoint" />
            <Array as="points">
              <mxPoint x="1050" y="288" />
              <mxPoint x="1050" y="340" />
            </Array>
          </mxGeometry>
        </mxCell>
        <mxCell id="pn1axEp1Zz7bbhyXCy7V-88" value="" style="shape=waypoint;sketch=0;fillStyle=solid;size=6;pointerEvents=1;points=[];fillColor=none;resizable=0;rotatable=0;perimeter=centerPerimeter;snapToPoint=1;fontFamily=Helvetica;fontSize=11;fontColor=default;" parent="1" vertex="1">
          <mxGeometry x="920" y="330" width="20" height="20" as="geometry" />
        </mxCell>
        <mxCell id="pn1axEp1Zz7bbhyXCy7V-92" style="edgeStyle=orthogonalEdgeStyle;shape=connector;rounded=0;jumpStyle=arc;orthogonalLoop=1;jettySize=auto;html=1;exitX=0;exitY=0.75;exitDx=0;exitDy=0;entryX=0.614;entryY=0.456;entryDx=0;entryDy=0;entryPerimeter=0;labelBackgroundColor=default;strokeColor=default;fontFamily=Helvetica;fontSize=11;fontColor=default;endArrow=none;" parent="1" source="AD1-2I_FPRvKC91VBRbE-168" target="pn1axEp1Zz7bbhyXCy7V-88" edge="1">
          <mxGeometry relative="1" as="geometry">
            <Array as="points">
              <mxPoint x="930" y="288" />
            </Array>
          </mxGeometry>
        </mxCell>
        <mxCell id="pn1axEp1Zz7bbhyXCy7V-93" style="edgeStyle=orthogonalEdgeStyle;shape=connector;rounded=0;jumpStyle=arc;orthogonalLoop=1;jettySize=auto;html=1;exitX=0;exitY=0.75;exitDx=0;exitDy=0;entryX=0.586;entryY=0.317;entryDx=0;entryDy=0;entryPerimeter=0;labelBackgroundColor=default;strokeColor=default;fontFamily=Helvetica;fontSize=11;fontColor=default;endArrow=none;" parent="1" source="AD1-2I_FPRvKC91VBRbE-166" target="pn1axEp1Zz7bbhyXCy7V-89" edge="1">
          <mxGeometry relative="1" as="geometry" />
        </mxCell>
        <mxCell id="pn1axEp1Zz7bbhyXCy7V-96" value="" style="edgeStyle=orthogonalEdgeStyle;shape=connector;rounded=0;jumpStyle=arc;orthogonalLoop=1;jettySize=auto;html=1;exitDx=0;exitDy=0;entryDx=0;entryDy=0;entryPerimeter=0;labelBackgroundColor=default;strokeColor=default;fontFamily=Helvetica;fontSize=11;fontColor=default;endArrow=none;" parent="1" source="pn1axEp1Zz7bbhyXCy7V-89" target="pn1axEp1Zz7bbhyXCy7V-95" edge="1">
          <mxGeometry relative="1" as="geometry">
            <mxPoint x="920" y="330" as="sourcePoint" />
            <mxPoint x="710" y="331" as="targetPoint" />
            <Array as="points" />
          </mxGeometry>
        </mxCell>
        <mxCell id="pn1axEp1Zz7bbhyXCy7V-95" value="" style="shape=waypoint;sketch=0;fillStyle=solid;size=6;pointerEvents=1;points=[];fillColor=none;resizable=0;rotatable=0;perimeter=centerPerimeter;snapToPoint=1;fontFamily=Helvetica;fontSize=11;fontColor=default;" parent="1" vertex="1">
          <mxGeometry x="790" y="320" width="20" height="20" as="geometry" />
        </mxCell>
        <mxCell id="pn1axEp1Zz7bbhyXCy7V-97" value="" style="edgeStyle=orthogonalEdgeStyle;shape=connector;rounded=0;jumpStyle=arc;orthogonalLoop=1;jettySize=auto;html=1;exitDx=0;exitDy=0;entryDx=0;entryDy=0;entryPerimeter=0;labelBackgroundColor=default;strokeColor=default;fontFamily=Helvetica;fontSize=11;fontColor=default;endArrow=none;" parent="1" source="pn1axEp1Zz7bbhyXCy7V-88" target="pn1axEp1Zz7bbhyXCy7V-94" edge="1">
          <mxGeometry relative="1" as="geometry">
            <mxPoint x="930" y="340" as="sourcePoint" />
            <mxPoint x="730" y="340" as="targetPoint" />
            <Array as="points" />
          </mxGeometry>
        </mxCell>
        <mxCell id="pn1axEp1Zz7bbhyXCy7V-94" value="" style="shape=waypoint;sketch=0;fillStyle=solid;size=6;pointerEvents=1;points=[];fillColor=none;resizable=0;rotatable=0;perimeter=centerPerimeter;snapToPoint=1;fontFamily=Helvetica;fontSize=11;fontColor=default;" parent="1" vertex="1">
          <mxGeometry x="800" y="330" width="20" height="20" as="geometry" />
        </mxCell>
        <mxCell id="pn1axEp1Zz7bbhyXCy7V-99" style="edgeStyle=orthogonalEdgeStyle;shape=connector;rounded=0;jumpStyle=arc;orthogonalLoop=1;jettySize=auto;html=1;exitX=0;exitY=0.75;exitDx=0;exitDy=0;labelBackgroundColor=default;strokeColor=default;fontFamily=Helvetica;fontSize=11;fontColor=default;endArrow=none;" parent="1" source="AD1-2I_FPRvKC91VBRbE-160" target="pn1axEp1Zz7bbhyXCy7V-94" edge="1">
          <mxGeometry relative="1" as="geometry">
            <Array as="points">
              <mxPoint x="810" y="288" />
            </Array>
          </mxGeometry>
        </mxCell>
        <mxCell id="pn1axEp1Zz7bbhyXCy7V-100" style="edgeStyle=orthogonalEdgeStyle;shape=connector;rounded=0;jumpStyle=arc;orthogonalLoop=1;jettySize=auto;html=1;exitX=0;exitY=0.75;exitDx=0;exitDy=0;entryX=0.447;entryY=0.289;entryDx=0;entryDy=0;entryPerimeter=0;labelBackgroundColor=default;strokeColor=default;fontFamily=Helvetica;fontSize=11;fontColor=default;endArrow=none;" parent="1" source="AD1-2I_FPRvKC91VBRbE-158" target="pn1axEp1Zz7bbhyXCy7V-95" edge="1">
          <mxGeometry relative="1" as="geometry" />
        </mxCell>
        <mxCell id="pn1axEp1Zz7bbhyXCy7V-104" value="&lt;font style=&quot;font-size: 7px;&quot;&gt;greater_than&lt;/font&gt;" style="text;html=1;strokeColor=none;fillColor=none;align=right;verticalAlign=middle;whiteSpace=wrap;rounded=0;fontSize=11;fontFamily=Helvetica;fontColor=default;" parent="1" vertex="1">
          <mxGeometry x="940" y="569.38" width="60" height="10" as="geometry" />
        </mxCell>
        <mxCell id="pn1axEp1Zz7bbhyXCy7V-105" value="&lt;font style=&quot;font-size: 7px;&quot;&gt;less_than&lt;/font&gt;" style="text;html=1;strokeColor=none;fillColor=none;align=right;verticalAlign=middle;whiteSpace=wrap;rounded=0;fontSize=11;fontFamily=Helvetica;fontColor=default;" parent="1" vertex="1">
          <mxGeometry x="940" y="579.38" width="60" height="10" as="geometry" />
        </mxCell>
        <mxCell id="pn1axEp1Zz7bbhyXCy7V-106" value="&lt;font style=&quot;font-size: 7px;&quot;&gt;equal_to&lt;/font&gt;" style="text;html=1;strokeColor=none;fillColor=none;align=right;verticalAlign=middle;whiteSpace=wrap;rounded=0;fontSize=11;fontFamily=Helvetica;fontColor=default;" parent="1" vertex="1">
          <mxGeometry x="940" y="589.38" width="60" height="10" as="geometry" />
        </mxCell>
        <mxCell id="pn1axEp1Zz7bbhyXCy7V-113" style="edgeStyle=orthogonalEdgeStyle;shape=connector;rounded=0;jumpStyle=arc;orthogonalLoop=1;jettySize=auto;html=1;exitDx=0;exitDy=0;entryX=1;entryY=0.75;entryDx=0;entryDy=0;labelBackgroundColor=default;strokeColor=default;fontFamily=Helvetica;fontSize=11;fontColor=default;endArrow=none;" parent="1" source="hdAm_U4ZvtJkM7ybA8hB-1" target="AD1-2I_FPRvKC91VBRbE-302" edge="1">
          <mxGeometry relative="1" as="geometry" />
        </mxCell>
        <mxCell id="pn1axEp1Zz7bbhyXCy7V-111" value="&amp;lt;instruction&amp;gt;_en" style="text;html=1;strokeColor=none;fillColor=none;align=left;verticalAlign=middle;whiteSpace=wrap;rounded=0;fontSize=7;fontFamily=Helvetica;fontColor=default;" parent="1" vertex="1">
          <mxGeometry x="700" y="496.25" width="60" height="13.75" as="geometry" />
        </mxCell>
        <mxCell id="pn1axEp1Zz7bbhyXCy7V-125" style="edgeStyle=orthogonalEdgeStyle;shape=connector;rounded=0;jumpStyle=arc;orthogonalLoop=1;jettySize=auto;html=1;exitX=0;exitY=0.5;exitDx=0;exitDy=0;labelBackgroundColor=default;strokeColor=default;fontFamily=Helvetica;fontSize=11;fontColor=default;endArrow=none;" parent="1" source="pn1axEp1Zz7bbhyXCy7V-115" target="pn1axEp1Zz7bbhyXCy7V-123" edge="1">
          <mxGeometry relative="1" as="geometry" />
        </mxCell>
        <mxCell id="pn1axEp1Zz7bbhyXCy7V-115" value="&lt;font style=&quot;font-size: 7px;&quot;&gt;data_in_port_2&lt;br style=&quot;font-size: 7px;&quot;&gt;&lt;/font&gt;" style="text;html=1;strokeColor=none;fillColor=none;align=left;verticalAlign=middle;whiteSpace=wrap;rounded=0;fontSize=7;fontFamily=Helvetica;fontColor=default;" parent="1" vertex="1">
          <mxGeometry x="200" y="466.87" width="60" height="13.75" as="geometry" />
        </mxCell>
        <mxCell id="pn1axEp1Zz7bbhyXCy7V-116" value="&lt;div style=&quot;font-size: 7px;&quot;&gt;&lt;font style=&quot;font-size: 7px;&quot;&gt;r_w_port_2&lt;/font&gt;&lt;/div&gt;" style="text;html=1;strokeColor=none;fillColor=none;align=left;verticalAlign=middle;whiteSpace=wrap;rounded=0;fontSize=7;fontFamily=Helvetica;fontColor=default;" parent="1" vertex="1">
          <mxGeometry x="200" y="480.62" width="40" height="13.75" as="geometry" />
        </mxCell>
        <mxCell id="pn1axEp1Zz7bbhyXCy7V-118" style="edgeStyle=orthogonalEdgeStyle;shape=connector;rounded=0;jumpStyle=arc;orthogonalLoop=1;jettySize=auto;html=1;exitX=1;exitY=0.5;exitDx=0;exitDy=0;entryX=0;entryY=0.5;entryDx=0;entryDy=0;labelBackgroundColor=default;strokeColor=default;fontFamily=Helvetica;fontSize=11;fontColor=default;endArrow=none;" parent="1" source="pn1axEp1Zz7bbhyXCy7V-117" target="AD1-2I_FPRvKC91VBRbE-234" edge="1">
          <mxGeometry relative="1" as="geometry" />
        </mxCell>
        <mxCell id="pn1axEp1Zz7bbhyXCy7V-117" value="0" style="text;html=1;strokeColor=none;fillColor=none;align=center;verticalAlign=middle;whiteSpace=wrap;rounded=0;fontSize=11;fontFamily=Helvetica;fontColor=default;" parent="1" vertex="1">
          <mxGeometry x="110" y="415.63" width="10" height="15" as="geometry" />
        </mxCell>
        <mxCell id="pn1axEp1Zz7bbhyXCy7V-120" value="" style="endArrow=none;html=1;rounded=0;labelBackgroundColor=default;strokeColor=default;fontFamily=Helvetica;fontSize=11;fontColor=default;shape=connector;jumpStyle=arc;exitX=0.429;exitY=0.845;exitDx=0;exitDy=0;exitPerimeter=0;entryDx=0;entryDy=0;entryPerimeter=0;edgeStyle=orthogonalEdgeStyle;" parent="1" target="pn1axEp1Zz7bbhyXCy7V-119" edge="1">
          <mxGeometry width="50" height="50" relative="1" as="geometry">
            <mxPoint x="160" y="409.37" as="sourcePoint" />
            <mxPoint x="160" y="760" as="targetPoint" />
            <Array as="points" />
          </mxGeometry>
        </mxCell>
        <mxCell id="pn1axEp1Zz7bbhyXCy7V-119" value="" style="shape=waypoint;sketch=0;fillStyle=solid;size=6;pointerEvents=1;points=[];fillColor=none;resizable=0;rotatable=0;perimeter=centerPerimeter;snapToPoint=1;fontFamily=Helvetica;fontSize=11;fontColor=default;" parent="1" vertex="1">
          <mxGeometry x="150" y="450" width="20" height="20" as="geometry" />
        </mxCell>
        <mxCell id="pn1axEp1Zz7bbhyXCy7V-122" style="edgeStyle=orthogonalEdgeStyle;shape=connector;rounded=0;jumpStyle=arc;orthogonalLoop=1;jettySize=auto;html=1;exitX=0;exitY=0.5;exitDx=0;exitDy=0;entryX=0.656;entryY=0.531;entryDx=0;entryDy=0;entryPerimeter=0;labelBackgroundColor=default;strokeColor=default;fontFamily=Helvetica;fontSize=11;fontColor=default;endArrow=none;" parent="1" source="pn1axEp1Zz7bbhyXCy7V-114" target="pn1axEp1Zz7bbhyXCy7V-119" edge="1">
          <mxGeometry relative="1" as="geometry">
            <Array as="points">
              <mxPoint x="200" y="460" />
              <mxPoint x="160" y="460" />
            </Array>
          </mxGeometry>
        </mxCell>
        <mxCell id="pn1axEp1Zz7bbhyXCy7V-114" value="&lt;font style=&quot;font-size: 7px;&quot;&gt;addr_in_port_2&lt;/font&gt;" style="text;html=1;strokeColor=none;fillColor=none;align=left;verticalAlign=middle;whiteSpace=wrap;rounded=0;fontSize=7;fontFamily=Helvetica;fontColor=default;" parent="1" vertex="1">
          <mxGeometry x="200" y="453.12" width="60" height="13.75" as="geometry" />
        </mxCell>
        <mxCell id="pn1axEp1Zz7bbhyXCy7V-124" value="" style="endArrow=none;html=1;rounded=0;labelBackgroundColor=default;strokeColor=default;fontFamily=Helvetica;fontSize=11;fontColor=default;shape=connector;jumpStyle=arc;exitDx=0;exitDy=0;exitPerimeter=0;entryDx=0;entryDy=0;entryPerimeter=0;edgeStyle=orthogonalEdgeStyle;" parent="1" source="pn1axEp1Zz7bbhyXCy7V-119" target="pn1axEp1Zz7bbhyXCy7V-123" edge="1">
          <mxGeometry width="50" height="50" relative="1" as="geometry">
            <mxPoint x="160" y="460" as="sourcePoint" />
            <mxPoint x="160" y="760" as="targetPoint" />
            <Array as="points" />
          </mxGeometry>
        </mxCell>
        <mxCell id="pn1axEp1Zz7bbhyXCy7V-123" value="" style="shape=waypoint;sketch=0;fillStyle=solid;size=6;pointerEvents=1;points=[];fillColor=none;resizable=0;rotatable=0;perimeter=centerPerimeter;snapToPoint=1;fontFamily=Helvetica;fontSize=11;fontColor=default;" parent="1" vertex="1">
          <mxGeometry x="150" y="463.75" width="20" height="20" as="geometry" />
        </mxCell>
        <mxCell id="pn1axEp1Zz7bbhyXCy7V-127" style="edgeStyle=orthogonalEdgeStyle;shape=connector;rounded=0;jumpStyle=arc;orthogonalLoop=1;jettySize=auto;html=1;exitX=1;exitY=0.5;exitDx=0;exitDy=0;entryX=0;entryY=0.5;entryDx=0;entryDy=0;labelBackgroundColor=default;strokeColor=default;fontFamily=Helvetica;fontSize=11;fontColor=default;endArrow=none;" parent="1" source="pn1axEp1Zz7bbhyXCy7V-126" target="pn1axEp1Zz7bbhyXCy7V-116" edge="1">
          <mxGeometry relative="1" as="geometry" />
        </mxCell>
        <mxCell id="pn1axEp1Zz7bbhyXCy7V-126" value="&lt;div style=&quot;&quot;&gt;&lt;font size=&quot;1&quot;&gt;sb_en&lt;/font&gt;&lt;/div&gt;" style="text;html=1;strokeColor=none;fillColor=none;align=left;verticalAlign=middle;whiteSpace=wrap;rounded=0;fontSize=11;fontFamily=Helvetica;fontColor=default;" parent="1" vertex="1">
          <mxGeometry x="90" y="480.62" width="30" height="13.75" as="geometry" />
        </mxCell>
        <mxCell id="pn1axEp1Zz7bbhyXCy7V-130" value="" style="endArrow=none;html=1;rounded=0;labelBackgroundColor=default;strokeColor=default;fontFamily=Helvetica;fontSize=11;fontColor=default;shape=connector;jumpStyle=arc;exitDx=0;exitDy=0;exitPerimeter=0;entryDx=0;entryDy=0;entryPerimeter=0;edgeStyle=orthogonalEdgeStyle;" parent="1" source="pn1axEp1Zz7bbhyXCy7V-123" target="pn1axEp1Zz7bbhyXCy7V-129" edge="1">
          <mxGeometry width="50" height="50" relative="1" as="geometry">
            <mxPoint x="160" y="474" as="sourcePoint" />
            <mxPoint x="160" y="760" as="targetPoint" />
            <Array as="points" />
          </mxGeometry>
        </mxCell>
        <mxCell id="pn1axEp1Zz7bbhyXCy7V-129" value="" style="shape=waypoint;sketch=0;fillStyle=solid;size=6;pointerEvents=1;points=[];fillColor=none;resizable=0;rotatable=0;perimeter=centerPerimeter;snapToPoint=1;fontFamily=Helvetica;fontSize=11;fontColor=default;" parent="1" vertex="1">
          <mxGeometry x="150" y="720" width="20" height="20" as="geometry" />
        </mxCell>
        <mxCell id="pn1axEp1Zz7bbhyXCy7V-131" style="edgeStyle=orthogonalEdgeStyle;shape=connector;rounded=0;jumpStyle=arc;orthogonalLoop=1;jettySize=auto;html=1;exitX=1;exitY=0.5;exitDx=0;exitDy=0;entryX=0.72;entryY=0.75;entryDx=0;entryDy=0;entryPerimeter=0;labelBackgroundColor=default;strokeColor=default;fontFamily=Helvetica;fontSize=11;fontColor=default;endArrow=none;" parent="1" source="pn1axEp1Zz7bbhyXCy7V-128" target="pn1axEp1Zz7bbhyXCy7V-129" edge="1">
          <mxGeometry relative="1" as="geometry">
            <Array as="points">
              <mxPoint x="330" y="457" />
              <mxPoint x="330" y="730" />
            </Array>
          </mxGeometry>
        </mxCell>
        <mxCell id="pn1axEp1Zz7bbhyXCy7V-128" value="&lt;font style=&quot;&quot;&gt;&lt;font style=&quot;font-size: 7px;&quot;&gt;data_out_port_2&lt;/font&gt;&lt;br&gt;&lt;/font&gt;" style="text;html=1;strokeColor=none;fillColor=none;align=right;verticalAlign=middle;whiteSpace=wrap;rounded=0;fontSize=11;fontFamily=Helvetica;fontColor=default;" parent="1" vertex="1">
          <mxGeometry x="270" y="450" width="50" height="13.75" as="geometry" />
        </mxCell>
        <mxCell id="pn1axEp1Zz7bbhyXCy7V-132" value="" style="endArrow=none;html=1;rounded=0;labelBackgroundColor=default;strokeColor=default;fontFamily=Helvetica;fontSize=11;fontColor=default;shape=connector;jumpStyle=none;" parent="1" edge="1">
          <mxGeometry width="50" height="50" relative="1" as="geometry">
            <mxPoint x="542.5" y="430" as="sourcePoint" />
            <mxPoint x="552.5" y="410" as="targetPoint" />
          </mxGeometry>
        </mxCell>
        <mxCell id="pn1axEp1Zz7bbhyXCy7V-133" value="18" style="edgeLabel;html=1;align=center;verticalAlign=middle;resizable=0;points=[];fontSize=9;fontFamily=Helvetica;fontColor=default;" parent="pn1axEp1Zz7bbhyXCy7V-132" vertex="1" connectable="0">
          <mxGeometry x="0.8667" y="-1" relative="1" as="geometry">
            <mxPoint x="7" y="-5" as="offset" />
          </mxGeometry>
        </mxCell>
        <mxCell id="hdAm_U4ZvtJkM7ybA8hB-2" value="" style="edgeStyle=orthogonalEdgeStyle;shape=connector;rounded=0;jumpStyle=arc;orthogonalLoop=1;jettySize=auto;html=1;exitX=0;exitY=0.5;exitDx=0;exitDy=0;entryDx=0;entryDy=0;labelBackgroundColor=default;strokeColor=default;fontFamily=Helvetica;fontSize=11;fontColor=default;endArrow=none;" parent="1" source="pn1axEp1Zz7bbhyXCy7V-111" target="hdAm_U4ZvtJkM7ybA8hB-1" edge="1">
          <mxGeometry relative="1" as="geometry">
            <mxPoint x="700" y="503" as="sourcePoint" />
            <mxPoint x="530" y="419" as="targetPoint" />
          </mxGeometry>
        </mxCell>
        <mxCell id="hdAm_U4ZvtJkM7ybA8hB-1" value="" style="shape=waypoint;sketch=0;fillStyle=solid;size=6;pointerEvents=1;points=[];fillColor=none;resizable=0;rotatable=0;perimeter=centerPerimeter;snapToPoint=1;" parent="1" vertex="1">
          <mxGeometry x="670" y="493.13" width="20" height="20" as="geometry" />
        </mxCell>
        <mxCell id="EItInm1hr8_x_I-9Iyxo-10" style="edgeStyle=orthogonalEdgeStyle;shape=connector;rounded=0;jumpStyle=arc;orthogonalLoop=1;jettySize=auto;html=1;exitX=0;exitY=0.5;exitDx=0;exitDy=0;entryX=0.572;entryY=0.677;entryDx=0;entryDy=0;entryPerimeter=0;labelBackgroundColor=default;strokeColor=default;fontFamily=Helvetica;fontSize=11;fontColor=default;endArrow=none;" edge="1" parent="1" source="hdAm_U4ZvtJkM7ybA8hB-8" target="AD1-2I_FPRvKC91VBRbE-271">
          <mxGeometry relative="1" as="geometry">
            <Array as="points">
              <mxPoint x="1170" y="451" />
              <mxPoint x="1170" y="258" />
            </Array>
          </mxGeometry>
        </mxCell>
        <mxCell id="EItInm1hr8_x_I-9Iyxo-11" style="edgeStyle=orthogonalEdgeStyle;shape=connector;rounded=0;jumpStyle=arc;orthogonalLoop=1;jettySize=auto;html=1;exitX=1;exitY=0.75;exitDx=0;exitDy=0;labelBackgroundColor=default;strokeColor=default;fontFamily=Helvetica;fontSize=11;fontColor=default;endArrow=none;" edge="1" parent="1" source="EItInm1hr8_x_I-9Iyxo-9">
          <mxGeometry relative="1" as="geometry">
            <mxPoint x="1140" y="450" as="targetPoint" />
          </mxGeometry>
        </mxCell>
      </root>
    </mxGraphModel>
  </diagram>
</mxfile>
